<?xml version="1.0" encoding="utf-8"?>
<!-- Generator: Adobe Illustrator 23.0.5, SVG Export Plug-In . SVG Version: 6.00 Build 0)  -->
<svg version="1.1" xmlns="http://www.w3.org/2000/svg" xmlns:xlink="http://www.w3.org/1999/xlink" x="0px" y="0px"
	 viewBox="0 0 512 512" style="enable-background:new 0 0 512 512;" xml:space="preserve">
<style type="text/css">
	.st0{fill:#231F20;}
	.st1{display:none;}
	.st2{display:inline;fill:#FFFFFF;}
	.st3{display:inline;fill:#231F20;}
	.st4{fill:#383534;}
	.st5{fill:#393534;}
	.st6{font-family:'Kessel105W00-HeavyOblique';}
	.st7{font-size:79.587px;}
	.st8{fill:#FFFFFF;}
</style>
<g id="Layer_1">
	<rect class="st0" width="512" height="512"/>
</g>
<g id="Layer_2" class="st1">
	<path class="st2" d="M258.36,364.12c-1.45-0.32-1.73-0.3-1.83-0.42c-25.65-32.46-52.6-63.98-76.04-98.05
		c-19.46-28.28-24.48-59.91-13-93.17c0.2-0.57,0.19-1.22,0.36-2.41c-8.72,0-17.26-0.04-25.8,0.02c-3.04,0.02-6.01-0.14-8.78-1.5
		c-9.44-4.63-21.48-2.06-27.58,6.26c-1.56,2.13-2.9,3.66-5.63,3.12c-1.9-0.37-3.03-1.79-3.33-3.52c-0.47-2.77,1.3-4.15,3.58-5.39
		c2.72-1.47,5.19-3.39,7.36-6.3c-2.9,0-5.81,0.01-8.71,0c-8.87-0.03-10.06-1.02-10.1-8.49c-0.04-7.81,1.13-8.82,10.4-8.84
		c7.72-0.01,15.44,0.02,23.16-0.02c2.09-0.01,4.45,0.56,5.93-1.54c3.88-5.47,9.5-5.83,15.49-5.73c10.28,0.16,20.56,0.04,30.76,0.04
		c0.83-2.57-0.93-3.92-1.81-5.5c-3.78-6.72-8.58-13.02-11.37-20.11c-5.65-14.38-16-21.66-30.79-24.18c-3.9-0.66-6.19-0.96-9.02,2.72
		c-7.7,10.04-20.91,13.08-32.43,8.34c-11.48-4.73-18.26-16.01-17.3-28.8c0.86-11.53,9.6-21.63,21.29-24.61
		c16.45-4.2,32.46,6.86,34.64,24.54c0.55,4.44,1.97,6.59,6.14,7.08c18.69,2.21,30.66,12.47,37.62,29.86
		c3.05,7.62,8.14,14.42,12.58,22.07c13.24-30.75,35.26-49.13,68.34-50.44c36.21-1.43,60.52,17.14,75.3,50.4
		c7.67-13.27,15.2-25.92,22.31-38.81c2.25-4.08,5.06-6.5,9.56-7.61c6.02-1.49,11.83-3.84,17.87-5.18c4.44-0.99,6-2.89,6.52-7.58
		c1.48-13.22,11.17-23.05,23.31-24.82c12.78-1.87,24.78,4.54,30.12,16.06c5.23,11.3,2.47,24.47-6.87,32.86
		c-11.94,10.71-30.38,9.33-40.55-3.5c-2.61-3.3-4.65-3.37-8.46-2.75c-15.09,2.46-25.35,10.1-31.32,24.52
		c-3.55,8.57-9.15,16.3-14.43,25.45c11.98,0,22.82,0.12,33.65-0.05c5.42-0.08,10.3,0.77,13.7,5.42c1.54,2.11,3.67,1.87,5.8,1.87
		c8.79,0.01,17.59,0.18,26.38-0.04c6.65-0.17,7.7,3.65,7.69,9.1c-0.01,5.48-1.77,8.64-7.81,8.31c-3.63-0.2-7.28-0.04-12-0.04
		c3.02,3.23,5.84,5.18,9.03,6.7c1.88,0.9,3.14,2.4,2.89,4.57c-0.24,2.05-1.41,3.57-3.6,3.98c-2.14,0.4-3.72-0.42-4.9-2.23
		c-4.63-7.14-12.19-8.88-19.75-10.54c-1.02-0.22-2.5-0.47-3.15,0.06c-10.03,8.19-21.85,3.61-32.85,4.75
		c-2.1,0.22-4.24,0.03-7.32,0.03c4.95,13.19,7.05,26.15,6.41,39.51c-1.09,22.72-8.63,43.33-21.97,61.45
		c-22.62,30.72-45.98,60.91-68.99,91.34C258.58,363.05,258.41,363.99,258.36,364.12z"/>
	<path class="st3" d="M307.63,208.96c-1.57-0.65-3.24-1.14-4.7-1.98c-9.98-5.69-18.81-7.6-31.17-2.8
		c-28.29,10.98-59.94-7.52-67.13-36.58c-7.34-29.67,11.36-59.56,40.82-65.27c30.2-5.85,59.06,14.61,63.01,44.93
		c1.66,12.72-0.79,24.81-8,35.56c-2.21,3.29-2.41,5.91-0.65,9.36c2.81,5.51,5.17,11.26,7.71,16.91L307.63,208.96z"/>
	<path class="st3" d="M231.44,230.8c8.34,13.35,17.99,18.22,30.51,15.39c8.78-1.98,14.32-7.87,18.5-15.4
		c1.83-2.14,3.98-3.84,6.59-4.97c11.14-4.82,20.71-11.81,28.91-20.78c2.06-2.25,4.1-5.23,8.04-3.79
		c1.22,16.57-2.95,32.05-11.48,45.94c-16.28,26.49-37.12,49.68-55.52,75.53c-16.61-21.14-32.73-41.62-48.81-62.15
		c-8.67-11.07-15.07-23.27-18.39-37.03c-1.77-7.35-2.5-14.75-1.87-22.28c3.3-1.35,5.32,0.87,7.14,2.88
		c8.73,9.66,19,17.13,30.94,22.28C228.24,227.38,229.82,229.1,231.44,230.8z"/>
	<path class="st3" d="M87.42,88.47C79.11,81,77.66,71.43,82.73,63c5.11-8.48,14.79-11.66,25.54-7.45
		c-9.34,0.36-16.85,2.27-21.53,9.79C82.14,72.71,82.76,80.14,87.42,88.47z"/>
	<path class="st3" d="M404.76,55.53c9.13-4.03,18.38-1.32,23.73,6.42c5.5,7.96,4.79,17.25-2.41,24.52
		c3.2-7.52,3.41-14.81-1.28-21.65C420,57.8,412.94,55.52,404.76,55.53z"/>
	<path class="st4" d="M258.92,156.91c-4.97-0.45-8.03-3.13-7.89-8.1c0.13-4.95,3.31-7.83,8.28-7.66c4.63,0.16,7.53,3.09,7.58,7.7
		C266.93,153.82,263.91,156.49,258.92,156.91z"/>
	<path class="st5" d="M231.1,156.89c-4.95-0.49-7.77-3.23-7.58-8.22c0.19-5.04,3.3-7.71,8.28-7.45c4.66,0.24,7.33,3.08,7.3,7.79
		C239.06,154.06,236.12,156.59,231.1,156.89z"/>
	<path class="st5" d="M294.51,149.21c-0.58,4.93-3.23,7.79-8.29,7.56c-5.09-0.23-7.64-3.34-7.39-8.31c0.23-4.73,3.19-7.3,7.82-7.27
		C291.68,141.23,294.2,144.24,294.51,149.21z"/>
	<text transform="matrix(1 0 0 1 225.3774 180.8491)" class="st2 st6 st7">R</text>
</g>
<g id="Layer_3">
	<g>
		<path class="st8" d="M150.6,237.51c0,6.94-1.71,12.94-5.14,18.01c-3.42,5.07-7.6,9.34-12.53,12.81l17.4,34.52h-31.37l-12.74-27.94
			H93.07v27.94H65.13V200.12h46.71c5.39,0,10.43,0.94,15.14,2.81c4.7,1.87,8.81,4.47,12.33,7.81c3.51,3.33,6.28,7.28,8.29,11.85
			C149.6,227.15,150.6,232.12,150.6,237.51z M122.25,237.51c0-1.28-0.25-2.62-0.75-4.04c-0.5-1.41-1.21-2.74-2.12-3.97
			c-0.91-1.23-2.01-2.24-3.29-3.01c-1.28-0.77-2.69-1.16-4.25-1.16H93.07v24.24h18.77c1.55,0,2.97-0.39,4.25-1.16
			c1.28-0.78,2.37-1.76,3.29-2.95c0.91-1.19,1.62-2.49,2.12-3.9C122,240.13,122.25,238.79,122.25,237.51z"/>
		<path class="st8" d="M252.24,264.77c0,6.21-1.07,11.8-3.22,16.78c-2.15,4.98-5.18,9.22-9.11,12.74
			c-3.93,3.52-8.58,6.21-13.97,8.08c-5.39,1.87-11.32,2.81-17.81,2.81c-6.39,0-12.28-0.94-17.67-2.81
			c-5.39-1.87-10.02-4.57-13.9-8.08c-3.88-3.51-6.9-7.76-9.04-12.74c-2.15-4.98-3.22-10.57-3.22-16.78v-64.65h28.49v64.65
			c0,4.29,1.3,7.76,3.9,10.41c2.6,2.65,6.41,3.97,11.44,3.97c5.11,0,8.97-1.32,11.57-3.97c2.6-2.65,3.9-6.12,3.9-10.41v-64.65h28.63
			V264.77z"/>
		<path class="st8" d="M331.54,228.61c-2.83-2.01-6.32-3.58-10.48-4.73c-4.16-1.14-8.75-1.71-13.77-1.71
			c-2.47,0-4.54,0.59-6.23,1.78c-1.69,1.19-2.76,2.6-3.22,4.25c-0.46,1.64-0.18,3.29,0.82,4.93c1,1.64,2.97,2.88,5.89,3.7
			c7.49,1.64,13.95,3.45,19.38,5.41c5.43,1.96,9.91,4.29,13.42,6.99c3.51,2.7,6.12,5.89,7.81,9.59c1.69,3.7,2.53,8.06,2.53,13.08
			c0,5.21-1.07,9.89-3.22,14.04c-2.15,4.16-5.07,7.65-8.77,10.48c-3.7,2.83-7.99,5-12.88,6.51c-4.89,1.51-10.07,2.26-15.55,2.26
			c-7.94,0-15.59-1.01-22.94-3.01c-7.35-2.01-13.49-4.75-18.42-8.22l14.93-21.23c2.28,2.47,5.87,4.45,10.75,5.96
			c4.88,1.51,10.11,2.31,15.68,2.4c2.74,0,5.21-0.64,7.4-1.92c2.19-1.28,3.65-2.76,4.38-4.45c0.73-1.69,0.55-3.4-0.55-5.14
			c-1.1-1.73-3.52-3.06-7.26-3.97c-7.4-1.64-13.81-3.49-19.24-5.55c-5.43-2.05-9.95-4.47-13.56-7.26c-3.61-2.78-6.3-6-8.08-9.66
			c-1.78-3.65-2.67-7.94-2.67-12.88c0-4.47,1.1-8.67,3.29-12.6c2.19-3.92,5.11-7.37,8.77-10.34c3.65-2.97,7.88-5.29,12.67-6.99
			c4.79-1.69,9.75-2.53,14.86-2.53c7.67,0,14.79,0.96,21.37,2.88c6.58,1.92,12.19,4.52,16.85,7.81L331.54,228.61z"/>
		<path class="st8" d="M418.79,302.84v-38.9h-29.45v38.9H361.4V200.12h27.94v38.9h29.45v-38.9h28.08v102.73H418.79z"/>
	</g>
</g>
</svg>
