<?xml version="1.0" encoding="utf-8"?>
<!-- Generator: Adobe Illustrator 23.0.5, SVG Export Plug-In . SVG Version: 6.00 Build 0)  -->
<svg version="1.1" id="Layer_1" xmlns="http://www.w3.org/2000/svg" xmlns:xlink="http://www.w3.org/1999/xlink" x="0px" y="0px"
	 viewBox="0 0 1080 1080" style="enable-background:new 0 0 1080 1080;" xml:space="preserve">
<style type="text/css">
	.st0{display:none;fill:#39B54A;}
	.st1{fill:url(#SVGID_1_);}
	.st2{fill:url(#SVGID_2_);}
	.st3{fill:#FFFFFF;}
	.st4{fill:#6A6DB0;}
	.st5{fill:#FF3030;}
	.st6{fill:#FF8B8C;}
	.st7{fill:#4F559E;}
</style>
<g>
	<g>
		<rect x="234.73" y="135.09" class="st0" width="618.18" height="796.36"/>
		<linearGradient id="SVGID_1_" gradientUnits="userSpaceOnUse" x1="378.8625" y1="589.1866" x2="738.2177" y2="412.1513">
			<stop  offset="0" style="stop-color:#6A6DB0"/>
			<stop  offset="1" style="stop-color:#898ECC"/>
		</linearGradient>
		<path class="st1" d="M697.23,480.29c0,1.21-0.01,2.41-0.05,3.6c-0.03,1.19-0.08,2.38-0.15,3.58c-0.07,1.18-0.15,2.37-0.25,3.55
			c-0.1,1.18-0.22,2.35-0.35,3.52c-0.14,1.18-0.28,2.34-0.45,3.51c-0.17,1.16-0.35,2.32-0.55,3.47c-0.2,1.16-0.41,2.3-0.64,3.45
			c-0.23,1.14-0.48,2.28-0.74,3.42c-0.26,1.13-0.54,2.27-0.83,3.39c-0.3,1.13-0.6,2.25-0.92,3.36c-0.33,1.11-0.66,2.22-1.02,3.33
			c-0.36,1.1-0.72,2.2-1.1,3.29c-0.39,1.09-0.78,2.18-1.19,3.26c-0.41,1.08-0.84,2.15-1.28,3.22s-0.89,2.13-1.37,3.19
			c-0.47,1.05-0.95,2.1-1.45,3.15c-0.5,1.05-1.01,2.08-1.53,3.11c-0.52,1.03-1.07,2.06-1.62,3.07c-0.54,1.02-1.11,2.03-1.69,3.03
			c-0.58,1-1.17,2-1.77,2.99c-0.6,0.99-1.23,1.97-1.85,2.94c-0.63,0.97-1.28,1.94-1.93,2.9c-0.65,0.96-1.33,1.91-2.01,2.86
			c-0.68,0.94-1.38,1.87-2.09,2.8c-0.7,0.93-1.42,1.85-2.15,2.76c-0.73,0.91-1.48,1.82-2.23,2.71c-0.76,0.89-1.52,1.78-2.3,2.66
			c-0.78,0.88-1.57,1.75-2.37,2.62c-0.8,0.86-1.61,1.71-2.44,2.56c-0.82,0.84-1.66,1.68-2.5,2.51c-0.85,0.82-1.7,1.64-2.57,2.45
			c-0.86,0.81-1.74,1.61-2.64,2.4c-0.89,0.78-1.79,1.57-2.7,2.34c-0.91,0.77-1.83,1.53-2.76,2.28c-0.93,0.75-1.87,1.49-2.82,2.22
			c-0.95,0.73-1.91,1.45-2.88,2.17c-0.97,0.7-1.95,1.41-2.94,2.1c-0.99,0.69-1.98,1.37-2.99,2.04c-1.01,0.67-2.03,1.33-3.06,1.98
			c-1.02,0.65-2.06,1.29-3.11,1.92c-1.05,0.62-2.1,1.24-3.16,1.85c-1.06,0.6-2.14,1.2-3.22,1.78c-1.08,0.59-2.17,1.16-3.26,1.71
			c-1.1,0.57-2.2,1.11-3.32,1.65c-1.11,0.54-2.23,1.06-3.36,1.58c-1.13,0.52-2.27,1.02-3.42,1.5c-1.14,0.49-2.3,0.97-3.46,1.44
			c-1.16,0.46-2.33,0.92-3.5,1.36c-1.18,0.44-2.36,0.87-3.55,1.29c-1.19,0.42-2.38,0.82-3.59,1.21c-1.21,0.39-2.42,0.77-3.63,1.14
			c-1.22,0.36-2.44,0.72-3.68,1.05c-1.23,0.34-2.46,0.67-3.71,0.98c-1.24,0.32-2.49,0.62-3.75,0.9c-1.26,0.29-2.51,0.57-3.79,0.82
			c-1.26,0.26-2.54,0.51-3.82,0.74c-1.28,0.23-2.57,0.45-3.85,0.65c-1.29,0.2-2.59,0.4-3.89,0.57c-1.3,0.17-2.61,0.34-3.92,0.49
			c-1.32,0.15-2.63,0.28-3.95,0.4c-1.32,0.12-2.64,0.23-3.98,0.31c-1.33,0.09-2.67,0.17-4,0.23c-1.34,0.07-2.69,0.11-4.03,0.14
			c-1.35,0.03-2.7,0.04-4.06,0.04s-2.71-0.01-4.06-0.04c-1.34-0.03-2.69-0.07-4.03-0.14c-1.34-0.06-2.67-0.13-4.01-0.23
			c-1.33-0.09-2.65-0.19-3.97-0.31c-1.32-0.12-2.64-0.25-3.95-0.4c-1.31-0.15-2.62-0.31-3.92-0.49c-1.31-0.17-2.6-0.37-3.89-0.57
			c-1.29-0.2-2.57-0.42-3.85-0.65c-1.28-0.23-2.56-0.48-3.82-0.74c-1.27-0.25-2.54-0.53-3.79-0.82c-1.26-0.28-2.51-0.58-3.76-0.9
			c-1.24-0.31-2.48-0.64-3.71-0.98c-1.24-0.33-2.46-0.69-3.68-1.05c-1.22-0.37-2.43-0.75-3.63-1.14c-1.21-0.39-2.4-0.79-3.59-1.21
			c-1.19-0.41-2.38-0.84-3.55-1.29s-2.34-0.89-3.5-1.36c-1.16-0.47-2.32-0.94-3.46-1.44c-1.15-0.49-2.29-0.99-3.42-1.5
			c-1.13-0.52-2.25-1.04-3.36-1.58c-1.12-0.54-2.22-1.08-3.32-1.65c-1.1-0.56-2.19-1.13-3.26-1.71c-1.08-0.58-2.16-1.18-3.22-1.78
			c-1.06-0.6-2.12-1.22-3.16-1.85c-1.05-0.63-2.09-1.27-3.11-1.92c-1.03-0.65-2.05-1.31-3.06-1.98c-1.01-0.67-2.01-1.35-2.99-2.04
			c-1-0.69-1.98-1.4-2.94-2.1c-0.97-0.71-1.93-1.44-2.88-2.17c-0.95-0.73-1.89-1.48-2.82-2.22c-0.93-0.76-1.85-1.51-2.76-2.28
			c-0.91-0.77-1.81-1.56-2.7-2.34c-0.89-0.79-1.77-1.59-2.63-2.4c-0.87-0.81-1.72-1.63-2.57-2.45c-0.84-0.83-1.68-1.66-2.51-2.51
			c-0.82-0.84-1.63-1.7-2.43-2.56c-0.8-0.86-1.59-1.74-2.37-2.62c-0.78-0.88-1.54-1.77-2.3-2.66c-0.76-0.89-1.5-1.8-2.23-2.71
			c-0.73-0.92-1.45-1.83-2.15-2.76c-0.7-0.93-1.4-1.86-2.09-2.8s-1.35-1.9-2.01-2.86c-0.65-0.96-1.3-1.93-1.93-2.9
			c-0.62-0.97-1.25-1.95-1.85-2.94c-0.6-0.99-1.2-1.98-1.77-2.99c-0.58-1-1.15-2.01-1.7-3.03c-0.54-1.02-1.09-2.04-1.61-3.07
			c-0.52-1.03-1.03-2.06-1.53-3.11c-0.49-1.05-0.98-2.09-1.45-3.15c-0.47-1.06-0.92-2.12-1.37-3.19s-0.86-2.14-1.28-3.22
			c-0.41-1.08-0.81-2.17-1.19-3.26c-0.39-1.09-0.75-2.19-1.1-3.29s-0.69-2.22-1.02-3.33c-0.32-1.11-0.62-2.23-0.92-3.36
			c-0.29-1.13-0.57-2.26-0.83-3.39c-0.26-1.13-0.51-2.27-0.74-3.42c-0.23-1.15-0.44-2.3-0.64-3.45c-0.2-1.16-0.39-2.31-0.55-3.47
			c-0.17-1.17-0.31-2.33-0.45-3.51c-0.13-1.17-0.25-2.35-0.35-3.52c-0.1-1.18-0.19-2.37-0.25-3.55c-0.07-1.19-0.12-2.38-0.15-3.58
			c-0.04-1.2-0.05-2.4-0.05-3.6c0-1.21,0.04-2.45,0.11-3.73c0.08-1.28,0.19-2.59,0.34-3.95c0.15-1.35,0.33-2.74,0.55-4.16
			c0.22-1.42,0.47-2.88,0.76-4.37c0.22-1.15,0.47-2.33,0.73-3.52h71.01c0.06,0,0.33-0.01,0.33-0.01l0.12-0.01l0.14-0.01l0.04-0.01
			l0.36-0.04l0.24-0.04c0.05-0.01,0.2-0.04,0.2-0.04l0.1-0.02l0.17-0.04c0.09-0.02,0.18-0.05,0.26-0.08l0.25-0.08
			c0.02-0.01,0.27-0.1,0.27-0.1c0.04-0.01,0.29-0.12,0.36-0.15l0.41-0.22l0.06-0.03l0.07-0.04l0.01-0.01l0.07-0.04l0.17-0.11
			l0.14-0.09c0.08-0.06,0.15-0.11,0.22-0.17c0.07-0.04,0.12-0.09,0.17-0.13l-2.52-3.1l2.59,3.04l0.17-0.15
			c0.06-0.05,0.22-0.2,0.22-0.2c0.05-0.05,0.14-0.15,0.14-0.15l0.06-0.06l0.09-0.11l0.07-0.08l0.09-0.12l3.38-4.64l5.86,27.81
			l0.04,0.19l0.07,0.25l0.02,0.07l0.09,0.26l0.1,0.26l0.11,0.25l0.04,0.07l0.07,0.12l0.15,0.27c0,0,0.13,0.2,0.17,0.26l0.17,0.24
			c0.04,0.06,0.09,0.12,0.14,0.17c0.04,0.05,0.08,0.1,0.12,0.15l0.16,0.18l0.2,0.2l0.08,0.08c0.07,0.07,0.13,0.12,0.2,0.17
			l0.19,0.15l0.2,0.15l0.27,0.18l0.26,0.16c0,0,0.23,0.12,0.26,0.15l0.23,0.12c0,0,0.21,0.09,0.27,0.11l0.2,0.08
			c0.07,0.03,0.14,0.05,0.16,0.06l0.39,0.12l1.05-3.86l-0.95,3.89l0.22,0.05c0,0,0.2,0.04,0.27,0.05l0.07,0.01
			c0.07,0.01,0.28,0.04,0.28,0.04c0.07,0.01,0.2,0.02,0.2,0.02l0.38,0.03h0.23c0,0,0.17,0,0.24,0c0.06,0,0.12-0.01,0.17-0.01
			l0.28-0.02l0.23-0.02c0.07-0.01,0.3-0.05,0.3-0.05l0.3-0.06c0.07-0.01,0.28-0.07,0.28-0.07l0.31-0.09l0.4-0.14l0.32-0.14l0.2-0.1
			c0.08-0.04,0.16-0.08,0.24-0.12c0.05-0.03,0.1-0.06,0.15-0.09v-0.01l0.08-0.04l0.09-0.05l0.21-0.14l0.2-0.15l0.27-0.21
			c0.05-0.04,0.1-0.09,0.14-0.12l0.14-0.13l0.11-0.11l0.12-0.13l0.04-0.04l0.19-0.22l0.16-0.2l0.21-0.3l0.15-0.24l0.12-0.23
			c0.04-0.07,0.11-0.21,0.11-0.21l0.04-0.1l0.12-0.27c0.02-0.07,0.1-0.29,0.1-0.29l0.09-0.28l0.04-0.18l4.66-21.54l6.37,35.24
			l0.04,0.17l0.07,0.28l0.09,0.25l0.1,0.28l0.07,0.17c0.03,0.07,0.09,0.2,0.09,0.2l0.06,0.11c0.03,0.07,0.07,0.14,0.11,0.2
			c0,0,0.07,0.13,0.1,0.17l0.14,0.22l0.2,0.27c0.05,0.07,0.11,0.14,0.15,0.19l0.1,0.12l0.1,0.11c0.06,0.07,0.12,0.13,0.15,0.16
			l0.22,0.2c0.07,0.06,0.13,0.11,0.2,0.17v-0.01l0.08,0.07c0.04,0.03,0.08,0.07,0.12,0.09c0.05,0.04,0.23,0.17,0.23,0.17
			c0.07,0.04,0.15,0.09,0.23,0.14l0.16,0.09l0.21,0.12c0,0,0.36,0.17,0.39,0.19l0.36,0.15l0.17,0.06c0,0,0.31,0.1,0.34,0.12
			c0,0,0.13,0.03,0.17,0.04l0.22,0.05l0.29,0.06l0.19,0.03l0.27,0.04l0.34,0.02h-0.12l0.17,0.01l0.2-3.99l-0.11,3.99l0.12,0.01
			c0,0,0.25,0,0.33,0l0.17-0.01c0.07,0,0.32-0.02,0.32-0.02l0.49-0.07l0.23-0.05l0.08-0.01c0,0,0.23-0.06,0.3-0.07
			c0,0,0.23-0.07,0.27-0.08l0.33-0.12l0.17-0.07l0.24-0.1c0.07-0.04,0.2-0.1,0.2-0.1l0.09-0.04l0.11-0.06
			c0.07-0.04,0.27-0.15,0.27-0.15c0.07-0.04,0.14-0.09,0.22-0.15c0,0,0.14-0.09,0.19-0.13c0.05-0.04,0.1-0.08,0.17-0.13l0.23-0.19
			l0.16-0.15l0.07-0.06c0.05-0.05,0.1-0.09,0.15-0.15s0.21-0.23,0.21-0.23c0.05-0.06,0.1-0.12,0.15-0.19c0,0,0.11-0.13,0.12-0.14
			l0.14-0.2l0.07-0.11l0.2-0.32l0.08-0.15c0.05-0.09,0.1-0.19,0.15-0.29l0.12-0.29c0.03-0.09,0.06-0.17,0.09-0.25
			c0,0,0.04-0.12,0.07-0.2l0.07-0.26l21.78-109.71l18.48,166.46l0.04,0.28l0.02,0.14l0.07,0.32l0.09,0.32h0.01l0.01,0.04h-0.01
			l0.04,0.11l0.04,0.12l0.05,0.15l0.19,0.41l0.15,0.28l0.04,0.07l0.04,0.06l0.08,0.13l0.17,0.24l0.12,0.16l0.09,0.12l0.21,0.25
			l0.18,0.19l0.18,0.17l0.27,0.24l0.18,0.15l0.29,0.2l0.2,0.13l0.36,0.2l0.17,0.09l0.3,0.14v-0.01l0.04,0.02l0.11,0.05l0.15,0.05
			l0.1,0.04l0.09,0.04l0.15,0.05l0.35,0.09l0.29,0.07l0.31,0.06l0.26,0.04l0.22,0.02v-0.01l0.06,0.01l0.23,0.01l0.36,0.01h0.21
			c0,0,0.2-0.01,0.28-0.02l0.07-0.01v0.01c0.07-0.01,0.14-0.01,0.2-0.02l0.12-0.02l0.13-0.01l0.28-0.05c0,0,0.28-0.07,0.35-0.08
			l0.17-0.05l0.16-0.04c0,0,0.28-0.09,0.35-0.12l0.24-0.1l-1.53-3.69l1.61,3.66l0.17-0.07l0.2-0.1l0.27-0.15l0.13-0.08
			c0,0,0.15-0.09,0.21-0.14l0.28-0.2l0.29-0.23c0.05-0.04,0.22-0.2,0.22-0.2l0.25-0.25l0.25-0.28l0.17-0.22
			c0.04-0.05,0.19-0.28,0.19-0.28l0.1-0.16c0,0,0.09-0.15,0.13-0.23c0,0,0.08-0.14,0.12-0.22l0.08-0.16
			c0.02-0.04,0.12-0.29,0.12-0.29l0.09-0.23c0.02-0.08,0.04-0.15,0.07-0.23c0.02-0.06,0.07-0.25,0.07-0.25
			c0.03-0.12,0.05-0.25,0.07-0.38l15.35-95.58l5.45,35.55c0.01,0.09,0.03,0.17,0.05,0.28l0.03,0.13l0.02,0.1c0,0,0,0.01,0.01,0.01
			l0.01,0.01c0.01,0.07,0.07,0.23,0.07,0.24l0.08,0.23l0.07,0.2c0.03,0.07,0.07,0.15,0.1,0.22c0,0,0.08,0.17,0.12,0.25l0.07,0.14
			l0.14,0.23l0.08,0.12l0.15,0.23c0,0,0.11,0.15,0.17,0.23l0.16,0.19l0.12,0.13l0.25,0.25c0.06,0.06,0.12,0.12,0.22,0.2l0.25,0.21
			l0.17,0.12l0.27,0.17l0.24,0.15l0.27,0.15l0.17,0.08l0.06,0.03l0.07,0.04l0.44,0.17c0.07,0.03,0.29,0.1,0.29,0.1
			c0.07,0.02,0.13,0.04,0.19,0.06l0.33,0.09c0.05,0.01,0.28,0.06,0.35,0.07l0.26,0.04l0.31,0.04l0.24,0.01h0.09l0.28,0.01h0.21
			l0.39-0.03c0,0,0.21-0.02,0.26-0.03l0.53-0.09l0.34-0.09c0,0,0.18-0.05,0.23-0.07c0,0,0.35-0.12,0.41-0.14l0.35-0.15
			c0,0,0.28-0.13,0.34-0.17l0.15-0.08l0.1-0.06l0.3-0.19l0.28-0.19l0.24-0.19c0.09-0.07,0.16-0.14,0.24-0.21l0.07-0.07l0.12-0.12
			l0.14-0.14v-0.01l0.1-0.11l0.2-0.23l0.12-0.16l0.09-0.13l0.17-0.25l0.15-0.26l0.11-0.21l0.12-0.24l0.09-0.22l0.07-0.17l0.05-0.15
			l10.11-33.18l3.44,16.3l0.04,0.2l0.1,0.33l0.04,0.14c0.03,0.07,0.06,0.15,0.09,0.23h0.01l0.01,0.03v0.01
			c0.03,0.07,0.06,0.14,0.09,0.2h0.01l0.01,0.04c0.04,0.09,0.09,0.19,0.14,0.28c0.04,0.08,0.08,0.15,0.12,0.22l0.18,0.28l0.19,0.26
			l0.17,0.2l0.02,0.02l0.15,0.17l0.19,0.19l0.07,0.07l0.29,0.27l0.24,0.18l0.08,0.07l0.12,0.08l0.11,0.07l0.2,0.13
			c0.05,0.04,0.16,0.09,0.16,0.09s0.13,0.07,0.17,0.09c0.05,0.03,0.25,0.12,0.25,0.12c0.07,0.04,0.13,0.07,0.2,0.09l0.4,0.16
			l1.34-3.77l-1.26,3.79l0.15,0.05l0.43,0.12c0,0,0.34,0.07,0.39,0.08l0.28,0.04l0.31,0.04l0.35,0.02c0,0,0.2,0.01,0.31,0.01
			c0.07,0,0.15-0.01,0.22-0.01c0,0,0.2-0.01,0.28-0.01l0.39-0.04l0.32-0.05c0.09-0.01,0.17-0.03,0.25-0.05l0.14-0.03l0.26-0.07
			c0.09-0.02,0.17-0.05,0.25-0.08l0.01-0.01c0.09-0.03,0.17-0.06,0.26-0.09l0.03-0.01l0.15-0.06c0,0,0.31-0.15,0.35-0.16l0.24-0.13
			l0.12-0.07l0.17-0.1c0,0,0.24-0.15,0.29-0.19l0.3-0.23l0.26-0.23l0.06-0.05l0.09-0.09l0.1-0.09c0.04-0.05,0.09-0.09,0.15-0.16
			c0.04-0.05,0.09-0.1,0.12-0.15c0,0,0.11-0.12,0.15-0.17c0,0,0.11-0.15,0.15-0.2l0.18-0.26l0.03-0.05c0,0,0.11-0.18,0.15-0.25
			l0.07-0.13l0.08-0.15l0.04-0.07l-0.01,0.01l0.08-0.15l0.07-0.18l5.17-13.54l3.79,5.52c0,0,0.12,0.16,0.15,0.2l0.15,0.19l0.02,0.03
			c0,0,0.11,0.13,0.15,0.17l0.23,0.24c0.05,0.05,0.11,0.1,0.16,0.15c0,0,0.15,0.14,0.2,0.18l0.01-0.01l0.04,0.04v0.01
			c0,0,0.2,0.16,0.27,0.2l0.17,0.12c0,0,0.22,0.15,0.27,0.17l0.15,0.09v-0.01l0.04,0.03l0.04,0.02c0.01,0.01,0.04,0.02,0.04,0.02
			s0.12,0.07,0.17,0.09l0.2,0.09l0.28,0.12l0.28,0.11l0.3,0.09c0.07,0.02,0.31,0.09,0.31,0.09c0.07,0.01,0.3,0.07,0.3,0.07
			l0.12,0.02l0.23,0.04l0.17,0.03l0.38,0.03l0.07,0.01l0.24,0.01h0.32l0.1-0.01l0.28-0.01l0.07-0.01l0.09-0.01l0.28-0.04l0.04-0.01
			c0,0,0.33-0.06,0.39-0.07l0.25-0.06c0.07-0.02,0.13-0.03,0.2-0.05l0.08-0.03l0.13-0.04l0.26-0.09l0.28-0.11l0.24-0.11l0.11-0.05
			v-0.01l0.04-0.02v0.01l0.18-0.1l0.21-0.12l0.2-0.13l0.04-0.04l0.01,0.01l0.28-0.2l0.11-0.09l0.09-0.08l0.23-0.2l0.02-0.02
			c0.06-0.05,0.11-0.1,0.17-0.16c0,0,0.15-0.15,0.19-0.2l0.13-0.15l7.73-9.09h50.71c0.27,1.19,0.52,2.37,0.73,3.52
			c0.29,1.49,0.54,2.94,0.76,4.37c0.23,1.42,0.41,2.8,0.55,4.16c0.15,1.35,0.26,2.67,0.34,3.95
			C697.19,477.84,697.23,479.08,697.23,480.29z"/>
		<linearGradient id="SVGID_2_" gradientUnits="userSpaceOnUse" x1="309.3369" y1="212.4721" x2="832.5159" y2="562.5792">
			<stop  offset="0" style="stop-color:#FF3030"/>
			<stop  offset="1" style="stop-color:#FF8B8C"/>
		</linearGradient>
		<path class="st2" d="M694.73,460.57h-50.71l-7.73,9.09l-0.13,0.15c-0.04,0.04-0.19,0.2-0.19,0.2c-0.06,0.06-0.11,0.11-0.17,0.16
			l-0.02,0.02l-0.23,0.2l-0.09,0.08l-0.11,0.09l-0.28,0.2l-0.01-0.01l-0.04,0.04l-0.2,0.13l-0.21,0.12l-0.18,0.1v-0.01l-0.04,0.02
			v0.01l-0.11,0.05l-0.24,0.11l-0.28,0.11l-0.26,0.09l-0.13,0.04l-0.08,0.03c-0.07,0.02-0.13,0.03-0.2,0.05l-0.25,0.06
			c-0.07,0.01-0.39,0.07-0.39,0.07l-0.04,0.01l-0.28,0.04l-0.09,0.01l-0.07,0.01l-0.28,0.01l-0.1,0.01h-0.32l-0.24-0.01l-0.07-0.01
			l-0.38-0.03l-0.17-0.03l-0.23-0.04l-0.12-0.02c0,0-0.23-0.05-0.3-0.07c0,0-0.25-0.07-0.31-0.09l-0.3-0.09l-0.28-0.11l-0.28-0.12
			l-0.2-0.09c-0.05-0.03-0.17-0.09-0.17-0.09s-0.02-0.01-0.04-0.02l-0.04-0.02l-0.04-0.03v0.01l-0.15-0.09
			c-0.05-0.03-0.27-0.17-0.27-0.17l-0.17-0.12c-0.07-0.04-0.27-0.2-0.27-0.2v-0.01l-0.04-0.04l-0.01,0.01
			c-0.05-0.04-0.2-0.18-0.2-0.18c-0.05-0.05-0.11-0.1-0.16-0.15l-0.23-0.24c-0.04-0.04-0.15-0.17-0.15-0.17l-0.02-0.03l-0.15-0.19
			c-0.03-0.04-0.15-0.2-0.15-0.2l-3.79-5.52l-5.17,13.54l-0.07,0.18l-0.08,0.15l0.01-0.01l-0.04,0.07l-0.08,0.15l-0.07,0.13
			c-0.04,0.07-0.15,0.25-0.15,0.25l-0.03,0.05l-0.18,0.26c-0.04,0.05-0.15,0.2-0.15,0.2c-0.04,0.05-0.15,0.17-0.15,0.17
			c-0.04,0.04-0.08,0.09-0.12,0.15c-0.07,0.07-0.11,0.11-0.15,0.16l-0.1,0.09l-0.09,0.09l-0.06,0.05l-0.26,0.23l-0.3,0.23
			c-0.05,0.04-0.29,0.19-0.29,0.19l-0.17,0.1l-0.12,0.07l-0.24,0.13c-0.04,0.01-0.35,0.16-0.35,0.16l-0.15,0.06l-0.03,0.01
			c-0.09,0.04-0.17,0.07-0.26,0.09l-0.01,0.01c-0.08,0.03-0.16,0.06-0.25,0.08l-0.26,0.07l-0.14,0.03
			c-0.08,0.02-0.16,0.04-0.25,0.05l-0.32,0.05l-0.39,0.04c-0.07,0.01-0.28,0.01-0.28,0.01c-0.07,0-0.15,0.01-0.22,0.01
			c-0.12,0-0.31-0.01-0.31-0.01l-0.35-0.02l-0.31-0.04l-0.28-0.04c-0.04-0.01-0.39-0.08-0.39-0.08l-0.43-0.12l-0.15-0.05l1.26-3.79
			l-1.34,3.77l-0.4-0.16c-0.07-0.03-0.14-0.06-0.2-0.09c0,0-0.2-0.09-0.25-0.12c-0.04-0.02-0.17-0.09-0.17-0.09
			s-0.11-0.06-0.16-0.09l-0.2-0.13l-0.11-0.07l-0.12-0.08l-0.08-0.07l-0.24-0.18l-0.29-0.27l-0.07-0.07l-0.19-0.19l-0.15-0.17
			l-0.02-0.02l-0.17-0.2l-0.19-0.26l-0.18-0.28c-0.04-0.07-0.08-0.14-0.12-0.22c-0.05-0.09-0.09-0.18-0.14-0.28l-0.01-0.04h-0.01
			c-0.03-0.07-0.06-0.14-0.09-0.2v-0.01l-0.01-0.03h-0.01c-0.03-0.08-0.06-0.16-0.09-0.23l-0.04-0.14l-0.1-0.33l-0.04-0.2
			l-3.44-16.3l-10.11,33.18l-0.05,0.15l-0.07,0.17l-0.09,0.22l-0.12,0.24l-0.11,0.21l-0.15,0.26l-0.17,0.25l-0.09,0.13l-0.12,0.16
			l-0.2,0.23l-0.1,0.11v0.01l-0.14,0.14l-0.12,0.12l-0.07,0.07c-0.08,0.07-0.15,0.14-0.24,0.21l-0.24,0.19l-0.28,0.19l-0.3,0.19
			l-0.1,0.06l-0.15,0.08c-0.07,0.04-0.34,0.17-0.34,0.17l-0.35,0.15c-0.06,0.02-0.41,0.14-0.41,0.14c-0.04,0.01-0.23,0.07-0.23,0.07
			l-0.34,0.09l-0.53,0.09c-0.05,0.01-0.26,0.03-0.26,0.03l-0.39,0.03h-0.21l-0.28-0.01h-0.09l-0.24-0.01l-0.31-0.04l-0.26-0.04
			c-0.07-0.01-0.3-0.06-0.35-0.07l-0.33-0.09c-0.06-0.01-0.12-0.04-0.19-0.06c0,0-0.23-0.07-0.29-0.1l-0.44-0.17l-0.07-0.04
			l-0.06-0.03l-0.17-0.08l-0.27-0.15l-0.24-0.15l-0.27-0.17l-0.17-0.12l-0.25-0.21c-0.09-0.08-0.16-0.14-0.22-0.2l-0.25-0.25
			l-0.12-0.13l-0.16-0.19c-0.07-0.09-0.17-0.23-0.17-0.23l-0.15-0.23l-0.08-0.12l-0.14-0.23l-0.07-0.14
			c-0.04-0.07-0.12-0.25-0.12-0.25c-0.04-0.07-0.07-0.15-0.1-0.22l-0.07-0.2l-0.08-0.23c0-0.01-0.05-0.17-0.07-0.24l-0.01-0.01
			c-0.01-0.01-0.01-0.01-0.01-0.01l-0.02-0.1l-0.03-0.13c-0.02-0.11-0.04-0.19-0.05-0.28l-5.45-35.55l-15.35,95.58
			c-0.02,0.12-0.04,0.25-0.07,0.38c0,0-0.05,0.2-0.07,0.25c-0.02,0.07-0.04,0.15-0.07,0.23l-0.09,0.23c0,0-0.1,0.25-0.12,0.29
			l-0.08,0.16c-0.04,0.08-0.12,0.22-0.12,0.22c-0.04,0.08-0.13,0.23-0.13,0.23l-0.1,0.16c0,0-0.15,0.23-0.19,0.28l-0.17,0.22
			l-0.25,0.28l-0.25,0.25c0,0-0.17,0.15-0.22,0.2l-0.29,0.23l-0.28,0.2c-0.06,0.04-0.21,0.14-0.21,0.14l-0.13,0.08l-0.27,0.15
			l-0.2,0.1l-0.17,0.07l-1.61-3.66l1.53,3.69l-0.24,0.1c-0.07,0.02-0.35,0.12-0.35,0.12l-0.16,0.04l-0.17,0.05
			c-0.07,0.01-0.35,0.08-0.35,0.08l-0.28,0.05l-0.13,0.01l-0.12,0.02c-0.07,0.01-0.14,0.01-0.2,0.02v-0.01l-0.07,0.01
			c-0.07,0.01-0.28,0.02-0.28,0.02h-0.21l-0.36-0.01l-0.23-0.01l-0.06-0.01v0.01l-0.22-0.02l-0.26-0.04l-0.31-0.06l-0.29-0.07
			l-0.35-0.09l-0.15-0.05l-0.09-0.04l-0.1-0.04l-0.15-0.05l-0.11-0.05l-0.04-0.02v0.01l-0.3-0.14l-0.17-0.09l-0.36-0.2l-0.2-0.13
			l-0.29-0.2l-0.18-0.15l-0.27-0.24l-0.18-0.17l-0.18-0.19l-0.21-0.25l-0.09-0.12l-0.12-0.16l-0.17-0.24l-0.08-0.13l-0.04-0.06
			l-0.04-0.07l-0.15-0.28l-0.19-0.41l-0.05-0.15l-0.04-0.12l-0.04-0.11h0.01l-0.01-0.04h-0.01l-0.09-0.32l-0.07-0.32l-0.02-0.14
			l-0.04-0.28l-18.48-166.46l-21.78,109.71l-0.07,0.26c-0.02,0.08-0.07,0.2-0.07,0.2c-0.03,0.09-0.06,0.17-0.09,0.25l-0.12,0.29
			c-0.04,0.1-0.09,0.2-0.15,0.29l-0.08,0.15l-0.2,0.32l-0.07,0.11l-0.14,0.2c-0.01,0.01-0.12,0.14-0.12,0.14
			c-0.05,0.07-0.1,0.13-0.15,0.19c0,0-0.16,0.18-0.21,0.23s-0.1,0.09-0.15,0.15l-0.07,0.06l-0.16,0.15l-0.23,0.19
			c-0.07,0.05-0.12,0.09-0.17,0.13c-0.05,0.04-0.19,0.13-0.19,0.13c-0.08,0.05-0.15,0.1-0.22,0.15c0,0-0.2,0.12-0.27,0.15
			l-0.11,0.06l-0.09,0.04c0,0-0.13,0.07-0.2,0.1l-0.24,0.1l-0.17,0.07l-0.33,0.12c-0.04,0.01-0.27,0.08-0.27,0.08
			c-0.07,0.01-0.3,0.07-0.3,0.07l-0.08,0.01l-0.23,0.05l-0.49,0.07c0,0-0.25,0.02-0.32,0.02l-0.17,0.01c-0.07,0-0.33,0-0.33,0
			l-0.12-0.01l0.11-3.99l-0.2,3.99l-0.17-0.01h0.12l-0.34-0.02l-0.27-0.04l-0.19-0.03l-0.29-0.06l-0.22-0.05
			c-0.04-0.01-0.17-0.04-0.17-0.04c-0.03-0.01-0.34-0.12-0.34-0.12l-0.17-0.06l-0.36-0.15c-0.03-0.01-0.39-0.19-0.39-0.19
			l-0.21-0.12l-0.16-0.09c-0.07-0.04-0.15-0.09-0.23-0.14c0,0-0.17-0.13-0.23-0.17c-0.04-0.03-0.09-0.07-0.12-0.09l-0.08-0.07v0.01
			c-0.07-0.06-0.13-0.11-0.2-0.17l-0.22-0.2c-0.03-0.03-0.09-0.09-0.15-0.16l-0.1-0.11l-0.1-0.12c-0.04-0.05-0.1-0.12-0.15-0.19
			l-0.2-0.27l-0.14-0.22c-0.03-0.04-0.1-0.17-0.1-0.17c-0.04-0.07-0.08-0.13-0.11-0.2l-0.06-0.11c0,0-0.07-0.13-0.09-0.2l-0.07-0.17
			l-0.1-0.28l-0.09-0.25l-0.07-0.28l-0.04-0.17l-6.37-35.24l-4.66,21.54l-0.04,0.18l-0.09,0.28c0,0-0.08,0.23-0.1,0.29l-0.12,0.27
			l-0.04,0.1c0,0-0.07,0.15-0.11,0.21l-0.12,0.23l-0.15,0.24l-0.21,0.3l-0.16,0.2l-0.19,0.22l-0.04,0.04l-0.12,0.13l-0.11,0.11
			l-0.14,0.13c-0.04,0.04-0.09,0.08-0.14,0.12l-0.27,0.21l-0.2,0.15l-0.21,0.14l-0.09,0.05l-0.08,0.04v0.01
			c-0.05,0.03-0.1,0.06-0.15,0.09c-0.08,0.04-0.16,0.09-0.24,0.12l-0.2,0.1l-0.32,0.14l-0.4,0.14l-0.31,0.09c0,0-0.2,0.05-0.28,0.07
			l-0.3,0.06c0,0-0.23,0.04-0.3,0.05l-0.23,0.02l-0.28,0.02c-0.06,0-0.12,0.01-0.17,0.01c-0.07,0-0.24,0-0.24,0h-0.23l-0.38-0.03
			c0,0-0.14-0.01-0.2-0.02c0,0-0.2-0.03-0.28-0.04l-0.07-0.01c-0.07-0.01-0.27-0.05-0.27-0.05l-0.22-0.05l0.95-3.89l-1.05,3.86
			l-0.39-0.12c-0.02-0.01-0.09-0.03-0.16-0.06l-0.2-0.08c-0.06-0.02-0.27-0.11-0.27-0.11l-0.23-0.12c-0.04-0.02-0.26-0.15-0.26-0.15
			l-0.26-0.16l-0.27-0.18l-0.2-0.15l-0.19-0.15c-0.07-0.06-0.13-0.11-0.2-0.17l-0.08-0.08l-0.2-0.2l-0.16-0.18
			c-0.04-0.04-0.08-0.09-0.12-0.15c-0.05-0.05-0.09-0.12-0.14-0.17l-0.17-0.24c-0.04-0.06-0.17-0.26-0.17-0.26l-0.15-0.27
			l-0.07-0.12l-0.04-0.07l-0.11-0.25l-0.1-0.26l-0.09-0.26l-0.02-0.07l-0.07-0.25l-0.04-0.19l-5.86-27.81l-3.38,4.64l-0.09,0.12
			l-0.07,0.08l-0.09,0.11l-0.06,0.06c0,0-0.09,0.1-0.14,0.15c0,0-0.16,0.15-0.22,0.2l-0.17,0.15l-2.59-3.04l2.52,3.1
			c-0.04,0.04-0.1,0.09-0.17,0.13c-0.07,0.06-0.14,0.11-0.22,0.17l-0.14,0.09l-0.17,0.11l-0.07,0.04l-0.01,0.01l-0.07,0.04
			l-0.06,0.03l-0.41,0.22c-0.07,0.03-0.32,0.14-0.36,0.15c0,0-0.25,0.09-0.27,0.1l-0.25,0.08c-0.08,0.03-0.17,0.06-0.26,0.08
			l-0.17,0.04l-0.1,0.02c0,0-0.15,0.04-0.2,0.04l-0.24,0.04l-0.36,0.04l-0.04,0.01l-0.14,0.01l-0.12,0.01c0,0-0.27,0.01-0.33,0.01
			h-71.01c0.07-0.34,0.15-0.68,0.23-1.03c0.36-1.56,0.74-3.13,1.16-4.74c0.42-1.61,0.87-3.25,1.34-4.91
			c0.09-0.31,0.17-0.61,0.27-0.92c0.4-1.37,0.81-2.76,1.26-4.17c0.54-1.72,1.1-3.47,1.7-5.24c0.6-1.77,1.21-3.57,1.86-5.38
			c0.65-1.82,1.32-3.67,2.02-5.53c0.7-1.87,1.42-3.76,2.17-5.66c0.75-1.91,1.53-3.84,2.32-5.78c0.8-1.95,1.61-3.92,2.46-5.9
			c0.84-1.98,1.7-3.98,2.58-5.99c0.89-2.02,1.79-4.05,2.71-6.1c0.92-2.05,1.86-4.11,2.82-6.18c0.96-2.07,1.93-4.16,2.93-6.26
			c0.99-2.1,2-4.21,3.02-6.33c1.03-2.12,2.07-4.25,3.12-6.39c1.05-2.14,2.13-4.29,3.21-6.44c1.08-2.15,2.18-4.32,3.28-6.48
			c1.11-2.17,2.23-4.34,3.36-6.51c1.13-2.18,2.27-4.35,3.42-6.54c1.16-2.18,2.31-4.37,3.48-6.55c1.17-2.19,2.35-4.37,3.54-6.56
			c1.18-2.19,2.38-4.37,3.58-6.55c1.2-2.18,2.4-4.37,3.61-6.54c1.21-2.18,2.42-4.35,3.64-6.53c1.21-2.17,2.43-4.33,3.66-6.49
			c1.22-2.16,2.45-4.32,3.68-6.46c1.23-2.14,2.46-4.28,3.68-6.4c1.23-2.13,2.46-4.24,3.68-6.35c1.23-2.11,2.45-4.2,3.68-6.29
			c1.22-2.09,2.44-4.16,3.66-6.21c1.21-2.06,2.43-4.1,3.64-6.13c1.21-2.03,2.41-4.04,3.61-6.03c1.2-2,2.39-3.97,3.58-5.94
			c1.18-1.96,2.36-3.9,3.53-5.82c1.17-1.93,2.33-3.83,3.48-5.71c1.16-1.87,2.3-3.73,3.43-5.57c1.13-1.84,2.25-3.65,3.36-5.44
			c1.11-1.79,2.21-3.55,3.29-5.29c1.08-1.74,2.15-3.45,3.2-5.14c1.06-1.69,2.1-3.35,3.12-4.98c1.02-1.63,2.03-3.23,3.03-4.8
			c1-1.57,1.97-3.12,2.93-4.62c0.96-1.51,1.9-2.99,2.82-4.43s1.82-2.86,2.7-4.23c0.89-1.38,1.74-2.72,2.59-4.03
			c0.84-1.31,1.66-2.58,2.45-3.81c0.8-1.24,1.57-2.43,2.32-3.58c0.75-1.16,1.48-2.27,2.17-3.34s1.37-2.11,2.02-3.1
			c0.65-0.99,1.27-1.94,1.87-2.85c0.59-0.91,1.16-1.77,1.69-2.59c0.54-0.81,1.05-1.58,1.53-2.31c0.48-0.73,0.93-1.41,1.34-2.03
			c0.42-0.63,0.81-1.22,1.16-1.75c0.36-0.53,0.68-1.02,0.97-1.45c0.29-0.44,0.54-0.81,0.76-1.15c0.22-0.33,0.4-0.6,0.55-0.83
			c0.15-0.22,0.26-0.39,0.33-0.5c0.08-0.11,0.12-0.17,0.12-0.17s0.04,0.06,0.12,0.17c0.07,0.12,0.19,0.28,0.33,0.5
			c0.15,0.23,0.33,0.5,0.55,0.83c0.22,0.33,0.47,0.71,0.76,1.15c0.29,0.43,0.61,0.92,0.97,1.45c0.35,0.53,0.73,1.12,1.16,1.75
			c0.41,0.62,0.86,1.31,1.34,2.03c0.48,0.73,0.99,1.5,1.53,2.31c0.54,0.82,1.1,1.68,1.69,2.59c0.6,0.91,1.22,1.86,1.87,2.85
			c0.65,1,1.32,2.03,2.02,3.1s1.42,2.19,2.17,3.34c0.75,1.16,1.52,2.35,2.32,3.58c0.79,1.23,1.61,2.5,2.45,3.81
			c0.84,1.3,1.7,2.64,2.59,4.03c0.88,1.37,1.78,2.78,2.7,4.23s1.86,2.92,2.82,4.43c0.96,1.5,1.93,3.05,2.93,4.62
			c1,1.57,2.01,3.17,3.03,4.8c1.02,1.63,2.06,3.28,3.12,4.98c1.05,1.69,2.12,3.39,3.2,5.14c1.08,1.74,2.18,3.5,3.29,5.29
			c1.1,1.79,2.23,3.6,3.36,5.44c1.13,1.84,2.27,3.7,3.43,5.57c1.15,1.88,2.31,3.79,3.48,5.71c1.17,1.92,2.35,3.86,3.53,5.82
			c1.18,1.96,2.38,3.94,3.58,5.94c1.2,1.99,2.41,4,3.61,6.03c1.21,2.03,2.43,4.07,3.64,6.13c1.22,2.06,2.44,4.13,3.66,6.21
			c1.23,2.09,2.45,4.18,3.68,6.29c1.23,2.11,2.46,4.22,3.68,6.35c1.23,2.12,2.46,4.26,3.68,6.4c1.23,2.14,2.46,4.3,3.68,6.46
			c1.23,2.16,2.45,4.32,3.66,6.49c1.22,2.17,2.43,4.35,3.64,6.53c1.21,2.17,2.41,4.36,3.61,6.54c1.2,2.19,2.39,4.37,3.58,6.55
			c1.19,2.19,2.37,4.37,3.54,6.56c1.17,2.18,2.33,4.37,3.48,6.55c1.15,2.19,2.3,4.36,3.42,6.54c1.13,2.17,2.25,4.35,3.36,6.51
			c1.1,2.17,2.2,4.33,3.28,6.48c1.08,2.15,2.15,4.3,3.21,6.44c1.05,2.14,2.09,4.27,3.12,6.39c1.02,2.12,2.03,4.23,3.02,6.33
			c1,2.1,1.97,4.19,2.93,6.26c0.96,2.08,1.9,4.13,2.82,6.18c0.92,2.05,1.82,4.08,2.71,6.1c0.88,2.01,1.74,4.02,2.58,5.99
			c0.84,1.98,1.66,3.95,2.46,5.9c0.79,1.95,1.57,3.87,2.32,5.78c0.75,1.9,1.47,3.79,2.17,5.66c0.7,1.86,1.37,3.71,2.02,5.53
			c0.65,1.82,1.26,3.61,1.86,5.38c0.6,1.77,1.16,3.52,1.7,5.24c0.44,1.41,0.86,2.8,1.26,4.17c0.09,0.31,0.18,0.61,0.27,0.92
			c0.47,1.66,0.92,3.31,1.34,4.91c0.41,1.61,0.8,3.19,1.16,4.74C694.58,459.89,694.66,460.23,694.73,460.57z"/>
		<g>
			<polygon class="st3" points="458.53,460.19 458.49,460.2 458.49,460.21 			"/>
			<polygon class="st3" points="617.02,477.53 616.99,477.6 617.01,477.55 			"/>
			<path class="st3" d="M636.7,450.54C636.7,450.54,636.7,450.54,636.7,450.54l0.02-0.02C636.72,450.52,636.71,450.53,636.7,450.54z
				"/>
			<polygon class="st3" points="638.63,449.39 638.66,449.38 638.67,449.38 			"/>
			<polygon class="st3" points="463.83,434.37 463.84,434.36 463.89,434.32 			"/>
			<polygon class="st3" points="639.61,449.11 639.63,449.11 639.7,449.09 			"/>
			<polygon class="st3" points="623.34,445.27 623.35,445.27 623.46,445.32 			"/>
			<path class="st3" d="M694.73,460.57h-50.71l-7.73,9.09l-0.13,0.15c-0.04,0.04-0.19,0.2-0.19,0.2c-0.06,0.06-0.11,0.11-0.17,0.16
				l-0.02,0.02l-0.23,0.2l-0.09,0.08l-0.11,0.09l-0.28,0.2l-0.01-0.01l-0.04,0.04l-0.2,0.13l-0.21,0.12l-0.18,0.1v-0.01l-0.04,0.02
				v0.01l-0.11,0.05l-0.24,0.11l-0.28,0.11l-0.26,0.09l-0.13,0.04l-0.08,0.03c-0.07,0.02-0.13,0.03-0.2,0.05l-0.25,0.06
				c-0.07,0.01-0.39,0.07-0.39,0.07l-0.04,0.01l-0.28,0.04l-0.09,0.01l-0.07,0.01l-0.28,0.01l-0.1,0.01h-0.32l-0.24-0.01l-0.07-0.01
				l-0.38-0.03l-0.17-0.03l-0.23-0.04l-0.12-0.02c0,0-0.23-0.05-0.3-0.07c0,0-0.25-0.07-0.31-0.09l-0.3-0.09l-0.28-0.11l-0.28-0.12
				l-0.2-0.09c-0.05-0.03-0.17-0.09-0.17-0.09s-0.02-0.01-0.04-0.02l-0.04-0.02l-0.04-0.03v0.01l-0.15-0.09
				c-0.05-0.03-0.27-0.17-0.27-0.17l-0.17-0.12c-0.07-0.04-0.27-0.2-0.27-0.2v-0.01l-0.04-0.04l-0.01,0.01
				c-0.05-0.04-0.2-0.18-0.2-0.18c-0.05-0.05-0.11-0.1-0.16-0.15l-0.23-0.24c-0.04-0.04-0.15-0.17-0.15-0.17l-0.02-0.03l-0.15-0.19
				c-0.03-0.04-0.15-0.2-0.15-0.2l-3.79-5.52l-5.17,13.54l-0.07,0.18l-0.08,0.15l-0.02,0.05l-0.08,0.15l-0.07,0.13
				c-0.04,0.07-0.15,0.25-0.15,0.25l-0.03,0.05l-0.18,0.26c-0.04,0.05-0.15,0.2-0.15,0.2c-0.04,0.05-0.15,0.17-0.15,0.17
				c-0.04,0.04-0.08,0.09-0.12,0.15c-0.07,0.07-0.11,0.11-0.15,0.16l-0.1,0.09l-0.09,0.09l-0.06,0.05l-0.26,0.23l-0.3,0.23
				c-0.05,0.04-0.29,0.19-0.29,0.19l-0.17,0.1l-0.12,0.07l-0.24,0.13c-0.04,0.01-0.35,0.16-0.35,0.16l-0.15,0.06l-0.03,0.01
				c-0.09,0.04-0.17,0.07-0.26,0.09l-0.01,0.01c-0.08,0.03-0.16,0.06-0.25,0.08l-0.26,0.07l-0.14,0.03
				c-0.08,0.02-0.16,0.04-0.25,0.05l-0.32,0.05l-0.39,0.04c-0.07,0.01-0.28,0.01-0.28,0.01c-0.07,0-0.15,0.01-0.22,0.01
				c-0.12,0-0.31-0.01-0.31-0.01l-0.35-0.02l-0.31-0.04l-0.28-0.04c-0.04-0.01-0.39-0.08-0.39-0.08l-0.43-0.12l-0.15-0.05l1.26-3.79
				l-1.34,3.77l-0.4-0.16c-0.07-0.03-0.14-0.06-0.2-0.09c0,0-0.2-0.09-0.25-0.12c-0.04-0.02-0.17-0.09-0.17-0.09
				s-0.11-0.06-0.16-0.09l-0.2-0.13l-0.11-0.07l-0.12-0.08l-0.08-0.07l-0.24-0.18l-0.29-0.27l-0.07-0.07l-0.19-0.19l-0.15-0.17
				l-0.02-0.02l-0.17-0.2l-0.19-0.26l-0.18-0.28c-0.04-0.07-0.08-0.14-0.12-0.22c-0.05-0.09-0.09-0.18-0.14-0.28l-0.01-0.04h-0.01
				c-0.03-0.07-0.06-0.14-0.09-0.2v-0.01l-0.01-0.03h-0.01c-0.03-0.08-0.06-0.16-0.09-0.23l-0.04-0.14l-0.1-0.33l-0.04-0.2
				l-3.44-16.3l-10.11,33.18l-0.05,0.15l-0.07,0.17l-0.09,0.22l-0.12,0.24l-0.11,0.21l-0.15,0.26l-0.17,0.25l-0.09,0.13l-0.12,0.16
				l-0.2,0.23l-0.1,0.11v0.01l-0.14,0.14l-0.12,0.12l-0.07,0.07c-0.08,0.07-0.15,0.14-0.24,0.21l-0.24,0.19l-0.28,0.19l-0.3,0.19
				l-0.1,0.06l-0.15,0.08c-0.07,0.04-0.34,0.17-0.34,0.17l-0.35,0.15c-0.06,0.02-0.41,0.14-0.41,0.14
				c-0.04,0.01-0.23,0.07-0.23,0.07l-0.34,0.09l-0.53,0.09c-0.05,0.01-0.26,0.03-0.26,0.03l-0.39,0.03h-0.21l-0.28-0.01h-0.09
				l-0.24-0.01l-0.31-0.04l-0.26-0.04c-0.07-0.01-0.3-0.06-0.35-0.07l-0.33-0.09c-0.06-0.01-0.12-0.04-0.19-0.06
				c0,0-0.23-0.07-0.29-0.1l-0.44-0.17l-0.07-0.04l-0.06-0.03l-0.17-0.08l-0.27-0.15l-0.24-0.15l-0.27-0.17l-0.17-0.12l-0.25-0.21
				c-0.09-0.08-0.16-0.14-0.22-0.2l-0.25-0.25l-0.12-0.13l-0.16-0.19c-0.07-0.09-0.17-0.23-0.17-0.23l-0.15-0.23l-0.08-0.12
				l-0.14-0.23l-0.07-0.14c-0.04-0.07-0.12-0.25-0.12-0.25c-0.04-0.07-0.07-0.15-0.1-0.22l-0.07-0.2l-0.08-0.23
				c0-0.01-0.05-0.17-0.07-0.24l-0.01-0.01c-0.01-0.01-0.01-0.01-0.01-0.01l-0.02-0.1l-0.03-0.13c-0.02-0.11-0.04-0.19-0.05-0.28
				l-5.45-35.55l-15.35,95.58c-0.02,0.12-0.04,0.25-0.07,0.38c0,0-0.05,0.2-0.07,0.25c-0.02,0.07-0.04,0.15-0.07,0.23l-0.09,0.23
				c0,0-0.1,0.25-0.12,0.29l-0.08,0.16c-0.04,0.08-0.12,0.22-0.12,0.22c-0.04,0.08-0.13,0.23-0.13,0.23l-0.1,0.16
				c0,0-0.15,0.23-0.19,0.28l-0.17,0.22l-0.25,0.28l-0.25,0.25c0,0-0.17,0.15-0.22,0.2l-0.29,0.23l-0.28,0.2
				c-0.06,0.04-0.21,0.14-0.21,0.14l-0.13,0.08l-0.27,0.15l-0.2,0.1l-0.17,0.07l-1.61-3.66l1.53,3.69l-0.24,0.1
				c-0.07,0.02-0.35,0.12-0.35,0.12l-0.16,0.04l-0.17,0.05c-0.07,0.01-0.35,0.08-0.35,0.08l-0.28,0.05l-0.13,0.01l-0.12,0.02
				c-0.07,0.01-0.14,0.01-0.2,0.02v-0.01l-0.07,0.01c-0.07,0.01-0.28,0.02-0.28,0.02h-0.21l-0.36-0.01l-0.23-0.01l-0.06-0.01v0.01
				l-0.22-0.02l-0.26-0.04l-0.31-0.06l-0.29-0.07l-0.35-0.09l-0.15-0.05l-0.09-0.04l-0.1-0.04l-0.15-0.05l-0.11-0.05l-0.04-0.02
				v0.01l-0.3-0.14l-0.17-0.09l-0.36-0.2l-0.2-0.13l-0.29-0.2l-0.18-0.15l-0.27-0.24l-0.18-0.17l-0.18-0.19l-0.21-0.25l-0.09-0.12
				l-0.12-0.16l-0.17-0.24l-0.08-0.13l-0.04-0.06l-0.04-0.07l-0.15-0.28l-0.19-0.41l-0.05-0.15l-0.04-0.12l-0.04-0.11h0.01
				l-0.01-0.04h-0.01l-0.09-0.32l-0.07-0.32l-0.02-0.14l-0.04-0.28l-18.48-166.46l-21.78,109.71l-0.07,0.26
				c-0.02,0.08-0.07,0.2-0.07,0.2c-0.03,0.09-0.06,0.17-0.09,0.25l-0.12,0.29c-0.04,0.1-0.09,0.2-0.15,0.29l-0.08,0.15l-0.2,0.32
				l-0.07,0.11l-0.14,0.2c-0.01,0.01-0.12,0.14-0.12,0.14c-0.05,0.07-0.1,0.13-0.15,0.19c0,0-0.16,0.18-0.21,0.23
				s-0.1,0.09-0.15,0.15l-0.07,0.06l-0.16,0.15l-0.23,0.19c-0.07,0.05-0.12,0.09-0.17,0.13c-0.05,0.04-0.19,0.13-0.19,0.13
				c-0.08,0.05-0.15,0.1-0.22,0.15c0,0-0.2,0.12-0.27,0.15l-0.11,0.06l-0.09,0.04c0,0-0.13,0.07-0.2,0.1l-0.24,0.1l-0.17,0.07
				l-0.33,0.12c-0.04,0.01-0.27,0.08-0.27,0.08c-0.07,0.01-0.3,0.07-0.3,0.07l-0.08,0.01l-0.23,0.05l-0.49,0.07
				c0,0-0.25,0.02-0.32,0.02l-0.17,0.01c-0.07,0-0.33,0-0.33,0l-0.12-0.01l0.11-3.99l-0.2,3.99l-0.17-0.01h0.12l-0.34-0.02
				l-0.27-0.04l-0.19-0.03l-0.29-0.06l-0.22-0.05c-0.04-0.01-0.17-0.04-0.17-0.04c-0.03-0.01-0.34-0.12-0.34-0.12l-0.17-0.06
				l-0.36-0.15c-0.03-0.01-0.39-0.19-0.39-0.19l-0.21-0.12l-0.16-0.09c-0.07-0.04-0.15-0.09-0.23-0.14c0,0-0.17-0.13-0.23-0.17
				c-0.04-0.03-0.09-0.07-0.12-0.09l-0.08-0.07v0.01c-0.07-0.06-0.13-0.11-0.2-0.17l-0.22-0.2c-0.03-0.03-0.09-0.09-0.15-0.16
				l-0.1-0.11l-0.1-0.12c-0.04-0.05-0.1-0.12-0.15-0.19l-0.2-0.27l-0.14-0.22c-0.03-0.04-0.1-0.17-0.1-0.17
				c-0.04-0.07-0.08-0.13-0.11-0.2l-0.06-0.11c0,0-0.07-0.13-0.09-0.2l-0.07-0.17l-0.1-0.28l-0.09-0.25l-0.07-0.28l-0.04-0.17
				l-6.37-35.24l-4.66,21.54l-0.04,0.18l-0.09,0.28c0,0-0.08,0.23-0.1,0.29l-0.12,0.27l-0.04,0.1c0,0-0.07,0.15-0.11,0.21
				l-0.12,0.23l-0.15,0.24l-0.21,0.3l-0.16,0.2l-0.19,0.22l-0.04,0.04l-0.12,0.13l-0.11,0.11l-0.14,0.13
				c-0.04,0.04-0.09,0.08-0.14,0.12l-0.27,0.21l-0.2,0.15l-0.21,0.14l-0.09,0.05l-0.08,0.04v0.01c-0.05,0.03-0.1,0.06-0.15,0.09
				c-0.08,0.04-0.16,0.09-0.24,0.12l-0.2,0.1l-0.32,0.14l-0.4,0.14l-0.31,0.09c0,0-0.2,0.05-0.28,0.07l-0.3,0.06
				c0,0-0.23,0.04-0.3,0.05l-0.23,0.02l-0.28,0.02c-0.06,0-0.12,0.01-0.17,0.01c-0.07,0-0.24,0-0.24,0h-0.23l-0.38-0.03
				c0,0-0.14-0.01-0.2-0.02c0,0-0.2-0.03-0.28-0.04l-0.07-0.01c-0.07-0.01-0.27-0.05-0.27-0.05l-0.22-0.05l0.95-3.89l-1.05,3.86
				l-0.39-0.12c-0.02-0.01-0.09-0.03-0.16-0.06l-0.2-0.08c-0.06-0.02-0.27-0.11-0.27-0.11l-0.23-0.12
				c-0.04-0.02-0.26-0.15-0.26-0.15l-0.26-0.16l-0.27-0.18l-0.2-0.15l-0.19-0.15c-0.07-0.06-0.13-0.11-0.2-0.17l-0.08-0.08l-0.2-0.2
				l-0.16-0.18c-0.04-0.04-0.08-0.09-0.12-0.15c-0.05-0.05-0.09-0.12-0.14-0.17l-0.17-0.24c-0.04-0.06-0.17-0.26-0.17-0.26
				l-0.15-0.27l-0.07-0.12l-0.04-0.07l-0.11-0.25l-0.1-0.26l-0.09-0.26l-0.02-0.07l-0.07-0.25l-0.04-0.19l-5.86-27.81l-3.38,4.64
				l-0.09,0.12l-0.07,0.08l-0.09,0.11l-0.06,0.06c0,0-0.09,0.1-0.14,0.15c0,0-0.16,0.15-0.22,0.2l-0.17,0.15l-2.59-3.04l2.52,3.1
				c-0.04,0.04-0.1,0.09-0.17,0.13c-0.07,0.06-0.14,0.11-0.22,0.17l-0.14,0.09l-0.17,0.11l-0.07,0.04l-0.01,0.01l-0.07,0.04
				l-0.06,0.03l-0.41,0.22c-0.07,0.03-0.32,0.14-0.36,0.15c0,0-0.25,0.09-0.27,0.1l-0.25,0.08c-0.08,0.03-0.17,0.06-0.26,0.08
				l-0.17,0.04l-0.1,0.02c0,0-0.15,0.04-0.2,0.04l-0.24,0.04l-0.36,0.04l-0.04,0.01l-0.14,0.01l-0.12,0.01c0,0-0.27,0.01-0.33,0.01
				h-71.01c0.07-0.34,0.15-0.68,0.23-1.03c0.36-1.56,0.74-3.13,1.16-4.74c0.42-1.61,0.87-3.25,1.34-4.91
				c0.09-0.31,0.17-0.61,0.27-0.92h64.69l9.93-13.64l0.19-0.23l0.21-0.23c0.08-0.08,0.15-0.15,0.21-0.2l0.2-0.17l0.09-0.08
				l0.05-0.04l0.28-0.22l0.07-0.04l0.25-0.17l0.21-0.13l0.21-0.11l0.1-0.06l0.35-0.16l0.23-0.09c0.04-0.01,0.28-0.09,0.28-0.09
				l0.08-0.03l0.22-0.07l0.27-0.07l0.26-0.06l0.24-0.04l0.22-0.03l0.17-0.02l0.22-0.01c0.04,0,0.18-0.01,0.18-0.01l0.25-0.01
				c0.08,0,0.32,0.01,0.32,0.01l0.25,0.01l0.12,0.01c0.07,0.01,0.39,0.04,0.39,0.04l0.03,0.01l0.07,0.01l0.24,0.04l0.28,0.07
				c0.09,0.02,0.16,0.04,0.23,0.06c0.04,0.01,0.36,0.12,0.36,0.12c0.06,0.02,0.27,0.1,0.27,0.1l0.23,0.1l0.32,0.15l0.19,0.11
				c0.07,0.04,0.22,0.13,0.22,0.13l0.12,0.07c0.08,0.05,0.15,0.1,0.23,0.16l0.28,0.21l0.04,0.03c0,0,0.11,0.09,0.17,0.14l0.12,0.11
				l0.22,0.21l0.22,0.24l0.07,0.09l0.19,0.23c0.04,0.07,0.18,0.26,0.18,0.26l0.07,0.11l0.06,0.09l0.08,0.13l0.15,0.28l0.07,0.14
				h-0.01l0.01,0.03h0.01l0.09,0.22c0.04,0.11,0.07,0.18,0.1,0.25l0.05,0.15l0.05,0.17l0.04,0.16l0.04,0.17l2.72,12.89l5.14-23.78
				c0,0,0.06-0.23,0.08-0.29l0.1-0.3l0.1-0.27c0.02-0.05,0.12-0.25,0.12-0.25l0.11-0.22c0,0,0.07-0.12,0.1-0.19l0.14-0.21l0.09-0.14
				l0.17-0.23l0.13-0.17c0.07-0.08,0.11-0.12,0.15-0.17l0.11-0.12l0.29-0.29l0.14-0.12l0.17-0.15l0.28-0.21l0.25-0.17l0.28-0.17
				l0.25-0.14c0.07-0.04,0.3-0.15,0.3-0.15c0.07-0.03,0.12-0.05,0.17-0.07c0.08-0.04,0.16-0.07,0.23-0.09
				c0.07-0.02,0.36-0.12,0.36-0.12s0.21-0.06,0.26-0.07l0.18-0.04l0.33-0.07c0,0,0.25-0.04,0.32-0.05l0.23-0.03l0.35-0.02
				c0,0,0.22-0.01,0.29-0.01c0.11,0,0.37,0.01,0.37,0.01c0.07,0,0.36,0.03,0.36,0.03l0.38,0.05l0.28,0.05v0.01l0.1,0.02v-0.01
				c0.07,0.01,0.28,0.07,0.28,0.07l0.28,0.08l0.39,0.14l0.36,0.15l0.28,0.14l0.3,0.17l0.37,0.24l0.2,0.15l0.12,0.09l-2.47,3.13
				l2.6-3.03l0.22,0.19l0.15,0.15c0.02,0.03,0.08,0.09,0.14,0.15l0.18,0.2c0,0,0.1,0.12,0.16,0.19l0.15,0.2l0.13,0.2l0.07,0.11
				c0.07,0.1,0.1,0.16,0.13,0.23l0.09,0.17l0.15,0.31l0.13,0.32c0.03,0.08,0.11,0.32,0.11,0.32l0.06,0.2l0.07,0.26l6.11,33.85
				l23.2-116.87l0.07-0.29l0.08-0.27l0.06-0.19l0.05-0.14l0.12-0.28l0.06-0.13l0.06-0.12l0.07-0.12l0.1-0.19l0.17-0.27l0.18-0.26
				l0.18-0.23c0.07-0.08,0.13-0.16,0.2-0.24l0.11-0.11l0.21-0.2l0.21-0.19l0.31-0.24l0.13-0.09c0.07-0.05,0.28-0.2,0.28-0.2
				l0.35-0.2l0.19-0.09l0.26-0.12l0.32-0.13c0.01-0.01,0.28-0.1,0.28-0.1l0.23-0.07l0.32-0.09l0.25-0.06c0.01,0,0.28-0.05,0.28-0.05
				l0.32-0.04l0.32-0.02l0.44-0.01l0.38,0.01l0.27,0.02l0.27,0.03l0.2,0.04l0.25,0.04l0.35,0.09l0.08,0.02l0.2,0.07l0.39,0.13
				l0.39,0.17l0.1,0.04l0.31,0.17l0.15,0.08l0.26,0.17l0.23,0.16l0.24,0.19l0.22,0.18c0.06,0.05,0.11,0.1,0.16,0.15l0.28,0.28
				l0.29,0.36l0.11,0.14l0.17,0.25l0.1,0.17l0.13,0.22l0.12,0.23l0.13,0.29l0.09,0.24l0.07,0.2l0.09,0.29l0.07,0.28l0.02,0.14
				c0.01,0.08,0.04,0.28,0.04,0.28l17.88,161.01l14.37-89.5l0.01-0.1l0.04-0.17l0.07-0.29l0.04-0.12c0.02-0.07,0.05-0.15,0.07-0.23
				l0.04-0.1l0.04-0.1l0.06-0.15c0.04-0.08,0.12-0.25,0.12-0.25l0.09-0.19l0.07-0.12l0.12-0.19l0.16-0.24l0.09-0.12l0.03-0.04
				l0.11-0.15l0.07-0.07l0.18-0.2c0,0,0.16-0.17,0.18-0.2c0.05-0.04,0.23-0.21,0.23-0.21l0.07-0.07l0.26-0.21l0.17-0.12l0.12-0.09
				l0.2-0.13l0.21-0.13l0.3-0.15l0.09-0.04l0.27-0.12l0.12-0.06l1.5,3.71l-1.4-3.74c0.06-0.02,0.4-0.15,0.4-0.15l0.2-0.06l0.36-0.09
				l0.33-0.07l0.27-0.04l0.27-0.03c0.12-0.01,0.31-0.02,0.31-0.02l0.28-0.01c0.08,0,0.28,0.01,0.28,0.01c0.06,0,0.12,0.01,0.18,0.01
				c0.09,0,0.18,0.01,0.28,0.02c0.05,0.01,0.4,0.05,0.4,0.05l0.17,0.04l0.06,0.01l0.17,0.04c0.12,0.03,0.25,0.07,0.37,0.1l0.38,0.12
				l0.31,0.12l0.07,0.03c0,0,0.23,0.11,0.31,0.15l0.04,0.02c0.09,0.04,0.17,0.09,0.25,0.14l0.21,0.12l0.17,0.12l0.15,0.1l0.26,0.2
				l0.25,0.2l0.16,0.14c0.07,0.07,0.15,0.15,0.23,0.23l0.17,0.18c0.04,0.05,0.19,0.23,0.19,0.23l0.15,0.2l0.01-0.01
				c0.03,0.04,0.09,0.12,0.15,0.22l0.14,0.22l0.07,0.12l0.09,0.18c0.05,0.1,0.09,0.18,0.12,0.26l0.06,0.14l0.06,0.15l0.09,0.28
				h-0.01l0.01,0.04h0.01c0.02,0.08,0.04,0.16,0.07,0.23c0,0,0.06,0.24,0.07,0.32c0.02,0.09,0.04,0.18,0.05,0.27l7.32,47.76
				l9.21-30.18c0.04-0.11,0.06-0.19,0.09-0.26l0.01-0.03c0.04-0.1,0.08-0.2,0.12-0.29l0.09-0.18l0.12-0.23l0.12-0.19l0.1-0.16
				l0.06-0.09l0.09-0.13c0.04-0.06,0.09-0.12,0.12-0.17c0.06-0.07,0.09-0.12,0.13-0.16c0.06-0.07,0.12-0.13,0.17-0.2l0.33-0.33
				l0.23-0.2l0.03-0.02l0.22-0.17c0.04-0.03,0.17-0.12,0.17-0.12l0.33-0.22l0.19-0.11l0.37-0.2l0.29-0.12l0.36-0.14l0.15-0.05
				l0.25-0.08l0.31-0.08c0.04-0.01,0.25-0.05,0.32-0.07c0.13-0.02,0.33-0.05,0.33-0.05c0.06-0.01,0.25-0.03,0.25-0.03l0.27-0.01
				c0.12-0.01,0.32-0.01,0.36-0.01c0,0,0.18,0.01,0.25,0.01c0,0,0.11,0.01,0.16,0.01l0.09,0.01c0.07,0.01,0.15,0.01,0.22,0.02
				l0.12,0.01c0.11,0.01,0.17,0.03,0.25,0.04c0.06,0.01,0.23,0.04,0.23,0.04l0.17,0.04l0.06,0.01l0.3,0.08l0.36,0.11l0.04,0.02
				l0.1,0.03l0.32,0.13l0.22,0.1c0.07,0.04,0.13,0.07,0.2,0.1l0.16,0.09l0.31,0.18l0.23,0.16l0.33,0.25l0.21,0.18l0.15,0.13
				l0.17,0.17l0.14,0.15l0.25,0.29c0.06,0.07,0.11,0.14,0.16,0.2l0.15,0.22l0.15,0.24c0.04,0.07,0.08,0.14,0.12,0.21l0.01,0.03h0.01
				c0.04,0.07,0.07,0.14,0.1,0.2v0.01l0.01,0.03c0.05,0.1,0.09,0.2,0.13,0.3h-0.01l0.01,0.04l0.09,0.23
				c0.04,0.11,0.06,0.17,0.08,0.25l0.09,0.37l4.05,19.22l1.82-4.74l0.09-0.2l0.17-0.36l0.17-0.31l0.16-0.25l0.25-0.33l0.12-0.13
				l0.08-0.09l0.1-0.12l0.11-0.11c0.07-0.07,0.13-0.13,0.19-0.18l0.09-0.08c0.08-0.07,0.16-0.14,0.25-0.21c0,0,0.14-0.11,0.21-0.16
				l0.23-0.16l0.12-0.07l0.29-0.17c0.07-0.04,0.24-0.13,0.24-0.13l0.28-0.13c0.06-0.02,0.2-0.09,0.2-0.09
				c0.07-0.03,0.14-0.05,0.2-0.07c0.05-0.02,0.2-0.07,0.2-0.07c0.07-0.02,0.27-0.08,0.31-0.09c0,0,0.25-0.07,0.33-0.08l0.28-0.06
				l0.25-0.04l0.13-0.01c0,0,0.21-0.02,0.25-0.03c0.07-0.01,0.3-0.02,0.3-0.02h0.44l0.22,0.01l0.28,0.02
				c0.08,0.01,0.37,0.05,0.37,0.05l0.03,0.01c0,0,0.15,0.02,0.22,0.04c0.05,0.01,0.17,0.04,0.17,0.04c0.08,0.01,0.16,0.04,0.24,0.06
				l0.15,0.04c0.09,0.02,0.17,0.04,0.24,0.07l0.17,0.05l0.33,0.13l0.05,0.02l0.36,0.17c0.07,0.04,0.14,0.07,0.2,0.11l0.04,0.02
				l0.25,0.15c0.07,0.04,0.32,0.21,0.32,0.21l0.27,0.2l0.24,0.2l0.27,0.26l0.13,0.13c0.08,0.09,0.12,0.14,0.17,0.19l0.34,0.44
				l5.99,8.71l4.16-4.88l0.1-0.12l0.01-0.01l0.07-0.07l0.09-0.09l0.16-0.16l0.19-0.17c0,0,0.01-0.01,0.01-0.01
				c0.04-0.04,0.19-0.16,0.19-0.16c0.04-0.04,0.09-0.07,0.15-0.12h0.01l0.01-0.01v-0.01l0.24-0.17c0.04-0.03,0.23-0.15,0.23-0.15
				l0.17-0.1c0.01-0.01,0.07-0.04,0.07-0.04l0.19-0.1c0.06-0.04,0.19-0.09,0.19-0.09l0.15-0.07l0.03-0.01
				c0.12-0.05,0.2-0.08,0.28-0.12l0.05-0.01l0.39-0.13c0,0,0.14-0.04,0.19-0.06l0.32-0.07l0.07-0.01l0.11-0.02
				c0.04-0.01,0.16-0.03,0.16-0.03c0.07-0.01,0.34-0.04,0.34-0.04l0.08-0.01l0.29-0.02c0.05,0,0.2-0.01,0.2-0.01h50.93
				c0.09,0.31,0.18,0.61,0.27,0.92c0.47,1.66,0.92,3.31,1.34,4.91c0.41,1.61,0.8,3.19,1.16,4.74
				C694.58,459.89,694.66,460.23,694.73,460.57z"/>
			<polygon class="st3" points="575.5,411.01 575.56,411.02 575.57,411.02 			"/>
			<polygon class="st3" points="620.82,444.73 620.84,444.73 620.9,444.73 			"/>
			<polygon class="st3" points="614.94,448.34 614.96,448.3 614.98,448.25 			"/>
			<polygon class="st3" points="615.83,446.92 615.88,446.86 615.91,446.83 			"/>
		</g>
	</g>
</g>
<g>
	<g>
		<rect x="234.73" y="135.09" class="st0" width="618.18" height="796.36"/>
		<g>
			<g>
				<path class="st4" d="M540,141.99c0,0,0.04,0.06,0.13,0.18c0.08,0.13,0.21,0.31,0.37,0.55c0.17,0.25,0.37,0.55,0.61,0.91
					c0.24,0.37,0.52,0.78,0.84,1.26c0.32,0.47,0.67,1.01,1.06,1.59c0.38,0.58,0.81,1.23,1.27,1.93c0.46,0.69,0.95,1.44,1.48,2.24
					s1.09,1.65,1.68,2.54c0.59,0.9,1.21,1.85,1.86,2.84c0.66,1,1.34,2.05,2.05,3.13c0.71,1.09,1.45,2.23,2.22,3.41
					c0.77,1.18,1.57,2.41,2.39,3.68c0.82,1.27,1.67,2.58,2.55,3.94c0.87,1.35,1.77,2.75,2.69,4.19c0.93,1.43,1.87,2.91,2.84,4.43
					c0.97,1.51,1.96,3.06,2.97,4.65c1.01,1.59,2.05,3.21,3.1,4.87c1.05,1.65,2.13,3.36,3.22,5.08c1.09,1.73,2.21,3.48,3.33,5.28
					c1.13,1.79,2.27,3.61,3.44,5.47c1.16,1.85,2.33,3.73,3.52,5.65c1.19,1.91,2.4,3.85,3.62,5.82c1.21,1.97,2.45,3.96,3.69,5.99
					c1.25,2.02,2.5,4.07,3.77,6.13c1.26,2.07,2.54,4.16,3.83,6.28c1.29,2.11,2.58,4.24,3.88,6.4c1.3,2.16,2.61,4.33,3.93,6.53
					c1.32,2.19,2.65,4.4,3.97,6.63c1.33,2.23,2.67,4.48,4,6.74c1.34,2.26,2.69,4.54,4.03,6.83c1.35,2.29,2.69,4.59,4.04,6.91
					c1.35,2.32,2.7,4.64,4.05,6.98c1.35,2.33,2.7,4.68,4.05,7.04c1.35,2.36,2.7,4.73,4.04,7.1c1.35,2.37,2.69,4.75,4.03,7.14
					c1.34,2.39,2.68,4.78,4,7.18c1.33,2.39,2.65,4.79,3.97,7.19c1.32,2.41,2.63,4.8,3.93,7.21c1.31,2.41,2.61,4.81,3.89,7.22
					c1.29,2.4,2.56,4.8,3.83,7.2c1.26,2.41,2.53,4.79,3.76,7.19c1.25,2.39,2.48,4.78,3.7,7.16c1.21,2.38,2.42,4.76,3.61,7.13
					c1.19,2.37,2.37,4.73,3.53,7.08c1.16,2.35,2.3,4.69,3.44,7.02c1.13,2.33,2.24,4.65,3.32,6.96c1.09,2.31,2.17,4.6,3.22,6.88
					c1.05,2.29,2.09,4.55,3.1,6.8c1.01,2.25,2.01,4.48,2.98,6.7c0.97,2.21,1.92,4.42,2.84,6.59c0.93,2.18,1.82,4.35,2.7,6.49
					c0.87,2.14,1.73,4.26,2.55,6.36c0.82,2.09,1.61,4.17,2.39,6.23c0.77,2.05,1.51,4.08,2.22,6.08c0.71,2,1.39,3.97,2.05,5.92
					c0.66,1.95,1.28,3.87,1.87,5.76c0.49,1.55,0.94,3.08,1.38,4.59c0.1,0.34,0.2,0.67,0.3,1.01c0.52,1.83,1.01,3.64,1.48,5.4
					c0.46,1.77,0.88,3.51,1.27,5.22c0.09,0.38,0.18,0.76,0.25,1.13c0.3,1.31,0.57,2.61,0.81,3.87c0.32,1.64,0.6,3.24,0.84,4.8
					c0.25,1.56,0.45,3.08,0.61,4.57c0.17,1.49,0.29,2.93,0.38,4.34c0.08,1.41,0.12,2.77,0.12,4.1s-0.02,2.65-0.06,3.96
					c-0.03,1.31-0.09,2.62-0.17,3.93c-0.07,1.3-0.17,2.61-0.28,3.91c-0.11,1.29-0.24,2.59-0.38,3.88c-0.15,1.29-0.31,2.57-0.5,3.86
					c-0.18,1.28-0.38,2.55-0.61,3.82c-0.22,1.27-0.46,2.53-0.7,3.8c-0.26,1.25-0.53,2.51-0.82,3.76c-0.29,1.25-0.59,2.49-0.91,3.73
					c-0.33,1.24-0.66,2.47-1.01,3.69c-0.36,1.22-0.73,2.45-1.12,3.66c-0.39,1.21-0.79,2.42-1.21,3.62c-0.42,1.2-0.86,2.4-1.31,3.59
					c-0.46,1.18-0.92,2.37-1.41,3.54c-0.49,1.17-0.98,2.34-1.5,3.51c-0.51,1.16-1.05,2.31-1.59,3.46c-0.55,1.15-1.11,2.29-1.69,3.42
					c-0.58,1.13-1.17,2.26-1.78,3.38c-0.6,1.12-1.22,2.23-1.86,3.33c-0.64,1.1-1.29,2.2-1.95,3.28c-0.66,1.09-1.35,2.17-2.04,3.24
					c-0.7,1.07-1.41,2.13-2.13,3.19c-0.72,1.05-1.46,2.1-2.21,3.14c-0.75,1.04-1.52,2.06-2.29,3.08c-0.78,1.02-1.57,2.03-2.37,3.04
					c-0.81,1-1.62,2-2.45,2.98c-0.83,0.98-1.67,1.96-2.53,2.92c-0.86,0.97-1.73,1.93-2.61,2.88c-0.88,0.94-1.77,1.89-2.68,2.81
					c-0.9,0.93-1.82,1.85-2.75,2.76c-0.93,0.9-1.87,1.81-2.83,2.69c-0.95,0.89-1.92,1.77-2.9,2.64c-0.98,0.86-1.97,1.73-2.96,2.57
					c-1,0.85-2.01,1.68-3.04,2.51c-1.02,0.82-2.05,1.64-3.1,2.45c-1.05,0.8-2.1,1.6-3.17,2.38c-1.07,0.78-2.14,1.55-3.24,2.31
					c-1.09,0.76-2.18,1.51-3.29,2.25c-1.11,0.74-2.23,1.46-3.36,2.17c-1.13,0.71-2.27,1.41-3.42,2.11
					c-1.15,0.69-2.31,1.37-3.48,2.03c-1.17,0.66-2.35,1.32-3.54,1.96c-1.18,0.65-2.38,1.27-3.59,1.89
					c-1.21,0.62-2.42,1.22-3.65,1.81c-1.22,0.59-2.45,1.17-3.7,1.73c-1.24,0.57-2.49,1.12-3.76,1.65c-1.25,0.54-2.53,1.07-3.8,1.58
					c-1.28,0.51-2.57,1.01-3.85,1.49c-1.29,0.49-2.6,0.96-3.91,1.41c-1.31,0.46-2.62,0.9-3.95,1.33c-1.33,0.43-2.66,0.85-4,1.25
					c-1.34,0.4-2.69,0.79-4.04,1.16c-1.35,0.38-2.71,0.74-4.08,1.08c-1.37,0.35-2.74,0.68-4.12,0.99c-1.38,0.32-2.77,0.62-4.16,0.9
					c-1.39,0.29-2.8,0.56-4.2,0.82c-1.41,0.26-2.82,0.5-4.24,0.72c-1.42,0.22-2.84,0.44-4.28,0.63c-1.43,0.19-2.87,0.38-4.31,0.54
					c-1.45,0.16-2.89,0.31-4.35,0.44c-1.45,0.14-2.91,0.25-4.38,0.34c-1.46,0.1-2.93,0.18-4.4,0.25c-1.48,0.07-2.96,0.12-4.44,0.15
					c-1.49,0.03-2.97,0.05-4.47,0.05s-2.98-0.02-4.47-0.05c-1.48-0.03-2.96-0.08-4.44-0.15c-1.47-0.06-2.94-0.14-4.41-0.25
					c-1.46-0.1-2.92-0.21-4.37-0.34c-1.45-0.13-2.9-0.28-4.35-0.44c-1.44-0.16-2.88-0.34-4.31-0.54c-1.44-0.19-2.86-0.41-4.28-0.63
					c-1.41-0.22-2.83-0.46-4.24-0.72c-1.41-0.26-2.81-0.53-4.2-0.82c-1.4-0.28-2.79-0.58-4.16-0.9c-1.38-0.31-2.76-0.64-4.13-0.99
					c-1.37-0.34-2.72-0.7-4.08-1.08c-1.36-0.37-2.7-0.76-4.04-1.16c-1.34-0.41-2.67-0.82-4-1.25c-1.33-0.43-2.64-0.87-3.95-1.33
					c-1.31-0.46-2.61-0.93-3.91-1.41s-2.57-0.98-3.85-1.49c-1.28-0.51-2.55-1.04-3.8-1.58c-1.26-0.54-2.52-1.09-3.76-1.65
					c-1.25-0.57-2.48-1.14-3.7-1.73c-1.23-0.59-2.45-1.19-3.65-1.81c-1.21-0.62-2.41-1.24-3.59-1.89c-1.19-0.64-2.37-1.29-3.54-1.96
					c-1.17-0.66-2.33-1.34-3.48-2.03c-1.15-0.7-2.29-1.4-3.42-2.11c-1.13-0.71-2.25-1.44-3.36-2.17c-1.11-0.74-2.21-1.49-3.29-2.25
					c-1.09-0.76-2.17-1.53-3.24-2.31c-1.07-0.78-2.13-1.58-3.17-2.38c-1.05-0.81-2.08-1.62-3.1-2.45c-1.02-0.83-2.04-1.66-3.04-2.51
					c-1-0.85-1.99-1.71-2.97-2.57c-0.97-0.87-1.94-1.75-2.89-2.64c-0.96-0.89-1.89-1.79-2.83-2.69c-0.93-0.91-1.85-1.83-2.76-2.76
					c-0.9-0.93-1.8-1.87-2.68-2.81c-0.88-0.95-1.75-1.91-2.61-2.88c-0.86-0.97-1.69-1.94-2.53-2.92s-1.65-1.98-2.45-2.98
					c-0.8-1.01-1.59-2.01-2.37-3.04c-0.78-1.02-1.54-2.05-2.29-3.08c-0.75-1.04-1.49-2.09-2.21-3.14c-0.72-1.05-1.43-2.12-2.13-3.19
					c-0.69-1.07-1.37-2.15-2.04-3.24c-0.66-1.09-1.32-2.18-1.95-3.28c-0.64-1.1-1.26-2.21-1.87-3.33c-0.6-1.12-1.2-2.25-1.77-3.38
					c-0.58-1.13-1.13-2.27-1.69-3.42c-0.54-1.15-1.08-2.3-1.59-3.46c-0.52-1.17-1.01-2.33-1.5-3.51c-0.49-1.17-0.95-2.36-1.41-3.54
					c-0.46-1.19-0.89-2.39-1.31-3.59c-0.42-1.2-0.82-2.41-1.21-3.62c-0.39-1.21-0.76-2.44-1.12-3.66c-0.35-1.22-0.69-2.45-1.01-3.69
					c-0.32-1.24-0.62-2.49-0.91-3.73s-0.56-2.5-0.82-3.76c-0.25-1.26-0.49-2.53-0.7-3.8c-0.22-1.27-0.42-2.54-0.61-3.82
					c-0.18-1.29-0.34-2.57-0.5-3.86c-0.14-1.29-0.27-2.58-0.38-3.88c-0.11-1.3-0.21-2.61-0.28-3.91c-0.08-1.31-0.14-2.62-0.17-3.93
					c-0.04-1.32-0.06-2.64-0.06-3.96s0.04-2.69,0.12-4.1c0.09-1.41,0.21-2.85,0.38-4.34c0.16-1.49,0.36-3.01,0.61-4.57
					c0.24-1.57,0.52-3.16,0.84-4.8c0.24-1.26,0.51-2.56,0.81-3.87c0.07-0.38,0.16-0.75,0.25-1.13c0.39-1.71,0.82-3.44,1.27-5.22
					c0.46-1.77,0.96-3.57,1.48-5.4c0.1-0.34,0.19-0.67,0.3-1.01c0.44-1.51,0.9-3.04,1.38-4.59c0.59-1.89,1.21-3.81,1.87-5.76
					c0.66-1.95,1.33-3.92,2.05-5.92c0.71-2.01,1.45-4.04,2.22-6.08c0.78-2.05,1.57-4.13,2.39-6.23c0.82-2.1,1.68-4.22,2.55-6.36
					c0.88-2.14,1.77-4.31,2.7-6.49c0.92-2.17,1.87-4.38,2.84-6.59c0.97-2.22,1.97-4.45,2.98-6.7c1.01-2.25,2.05-4.52,3.1-6.8
					c1.05-2.28,2.13-4.57,3.22-6.88c1.09-2.31,2.2-4.63,3.32-6.96c1.13-2.33,2.28-4.67,3.44-7.02c1.16-2.35,2.34-4.71,3.53-7.08
					c1.19-2.37,2.4-4.75,3.61-7.13c1.22-2.38,2.45-4.77,3.7-7.16c1.24-2.4,2.5-4.79,3.76-7.19c1.27-2.4,2.54-4.8,3.83-7.2
					c1.29-2.41,2.58-4.81,3.89-7.22c1.3-2.41,2.61-4.8,3.93-7.21c1.32-2.4,2.64-4.8,3.97-7.19c1.33-2.4,2.66-4.79,4-7.18
					c1.33-2.39,2.68-4.76,4.03-7.14c1.34-2.37,2.69-4.75,4.04-7.1c1.35-2.36,2.7-4.71,4.05-7.04c1.35-2.34,2.7-4.67,4.05-6.98
					c1.35-2.32,2.69-4.62,4.04-6.91c1.34-2.29,2.69-4.57,4.03-6.83c1.33-2.26,2.67-4.51,4-6.74c1.33-2.23,2.65-4.44,3.97-6.63
					c1.32-2.2,2.63-4.37,3.93-6.53c1.3-2.16,2.6-4.29,3.88-6.4c1.29-2.12,2.57-4.21,3.83-6.28c1.27-2.06,2.53-4.11,3.77-6.13
					c1.24-2.02,2.48-4.01,3.69-5.99c1.22-1.97,2.43-3.91,3.62-5.82c1.19-1.92,2.37-3.8,3.52-5.65c1.17-1.86,2.31-3.68,3.44-5.47
					c1.13-1.8,2.24-3.56,3.33-5.28c1.09-1.73,2.17-3.43,3.22-5.08c1.05-1.66,2.09-3.28,3.1-4.87c1.01-1.59,2.01-3.14,2.97-4.65
					c0.97-1.52,1.92-3,2.84-4.43c0.92-1.44,1.82-2.84,2.69-4.19c0.88-1.36,1.73-2.67,2.55-3.94c0.82-1.27,1.62-2.49,2.39-3.68
					c0.77-1.18,1.51-2.32,2.22-3.41c0.71-1.09,1.4-2.13,2.05-3.13c0.65-1,1.27-1.94,1.86-2.84c0.59-0.9,1.15-1.74,1.68-2.54
					s1.02-1.55,1.48-2.24c0.46-0.7,0.89-1.34,1.27-1.93c0.39-0.58,0.74-1.12,1.06-1.59c0.32-0.48,0.6-0.89,0.84-1.26
					c0.24-0.36,0.44-0.66,0.61-0.91c0.16-0.24,0.29-0.42,0.37-0.55C539.96,142.06,540,141.99,540,141.99 M539.78,126.34l-5.9,11.73
					l-0.02,0.03l-0.12,0.19l-0.09,0.13l-0.16,0.23v0c-0.12,0.18-0.26,0.38-0.41,0.62l-0.23,0.34l-0.02,0.03l-0.02,0.03
					c-0.16,0.25-0.35,0.53-0.56,0.84l-0.23,0.34c-0.19,0.28-0.39,0.58-0.6,0.89l-0.47,0.7l-0.02,0.03l-0.02,0.03l-0.24,0.36
					c-0.31,0.47-0.65,0.99-1.01,1.53l-1.26,1.91l-0.24,0.36l-1.68,2.54l-0.58,0.88c-0.43,0.65-0.87,1.32-1.32,2.02l-0.28,0.43
					l-1.75,2.67l-0.98,1.51c-0.41,0.63-0.83,1.27-1.26,1.93l-1.06,1.63c-0.44,0.67-0.88,1.35-1.33,2.05l-1.69,2.61l-0.86,1.33
					l-0.26,0.4c-0.8,1.24-1.62,2.51-2.46,3.82c-0.63,0.97-1.29,2.01-1.97,3.07l-0.86,1.35c-0.97,1.52-1.97,3.07-2.98,4.67
					c-1.02,1.6-2.05,3.22-3.11,4.89c-0.65,1.02-1.32,2.08-1.99,3.14l-1.23,1.94c-1.1,1.74-2.22,3.51-3.35,5.32
					c-1.12,1.78-2.27,3.61-3.44,5.47l-0.31,0.5c-1.06,1.7-2.14,3.42-3.23,5.17c-0.92,1.48-1.87,3-2.82,4.53l-0.8,1.28
					c-0.52,0.85-1.03,1.67-1.54,2.5c-0.72,1.17-1.45,2.34-2.18,3.53l-1.96,3.18l-1.8,2.93l-0.69,1.13c-1.05,1.71-2.1,3.44-3.16,5.19
					c-1.29,2.11-2.59,4.25-3.89,6.42c-1.31,2.16-2.62,4.34-3.94,6.55c-1.32,2.19-2.65,4.42-3.99,6.66
					c-1.33,2.23-2.67,4.48-4.02,6.76c-1.34,2.26-2.69,4.55-4.04,6.85c-1.35,2.29-2.69,4.6-4.05,6.92c-1.36,2.33-2.71,4.66-4.07,7.01
					c-1.35,2.33-2.71,4.69-4.06,7.06c-1.36,2.37-2.71,4.75-4.06,7.14c-1.35,2.37-2.7,4.76-4.05,7.17c-1.34,2.39-2.68,4.79-4.02,7.2
					c-1.13,2.02-2.26,4.07-3.39,6.13l-0.59,1.08c-1.33,2.43-2.65,4.83-3.95,7.25c-1.31,2.41-2.61,4.83-3.91,7.25
					c-1.07,1.99-2.13,3.99-3.19,5.99l-0.65,1.24l-0.87,1.66c-0.98,1.87-1.96,3.73-2.93,5.6c-1.24,2.38-2.48,4.78-3.71,7.18
					c-1.23,2.41-2.44,4.8-3.64,7.18c-1.2,2.38-2.39,4.77-3.56,7.13c-1.16,2.36-2.31,4.72-3.45,7.06c-1.33,2.76-2.4,4.99-3.36,7.04
					c-0.99,2.08-2.05,4.35-3.24,6.92c-1.18,2.56-2.17,4.71-3.14,6.89c-1,2.22-2.01,4.5-3,6.75c-1.06,2.42-2,4.6-2.88,6.68
					c-0.99,2.32-1.93,4.62-2.73,6.56c-0.79,1.95-1.71,4.22-2.59,6.47c-0.89,2.27-1.73,4.47-2.42,6.31
					c-0.81,2.17-1.58,4.26-2.27,6.22c-0.68,1.92-1.36,3.89-2.08,6.04c-0.68,2.03-1.33,4.01-1.92,5.91c-0.44,1.41-0.89,2.9-1.41,4.67
					c-0.11,0.36-0.21,0.72-0.32,1.08c-0.55,1.95-1.06,3.82-1.52,5.57c-0.5,1.93-0.93,3.7-1.33,5.44l-0.03,0.11
					c-0.09,0.39-0.17,0.77-0.25,1.15c-0.31,1.4-0.59,2.74-0.83,4.01c-0.33,1.7-0.63,3.41-0.88,5.06c-0.25,1.57-0.47,3.23-0.65,4.89
					c-0.17,1.48-0.3,3.02-0.4,4.66c-0.09,1.58-0.13,3.1-0.13,4.55c0,1.5,0.02,2.87,0.06,4.18c0.03,1.35,0.09,2.76,0.18,4.15
					c0.07,1.26,0.17,2.61,0.29,4.09c0.12,1.37,0.25,2.73,0.4,4.06c0.19,1.59,0.35,2.88,0.52,4.08c0.21,1.44,0.42,2.77,0.64,4.05
					c0.24,1.43,0.52,2.86,0.73,3.93l0.01,0.03l0.01,0.03c0.27,1.33,0.56,2.66,0.85,3.94c0.31,1.33,0.63,2.64,0.96,3.91
					c0.39,1.46,0.73,2.72,1.07,3.88c0.32,1.09,0.73,2.47,1.19,3.88c0.48,1.48,0.89,2.7,1.28,3.81c0.36,1.03,0.85,2.39,1.38,3.76
					c0.4,1.03,0.92,2.37,1.48,3.73c0.58,1.4,1.08,2.57,1.58,3.68c0.58,1.31,1.19,2.62,1.66,3.61c0.59,1.23,1.18,2.43,1.78,3.6
					c0.64,1.26,1.29,2.48,1.85,3.53c0.66,1.21,1.32,2.39,1.99,3.54c0.58,1.01,1.23,2.11,2.03,3.42c0.71,1.16,1.44,2.31,2.13,3.38
					c0.7,1.08,1.42,2.16,2.24,3.36c0.75,1.11,1.54,2.22,2.32,3.31c0.86,1.18,1.73,2.34,2.39,3.22c0.87,1.15,1.74,2.25,2.46,3.16
					l0.02,0.03l0.02,0.03c0.74,0.92,1.62,2,2.56,3.11c0.93,1.1,1.79,2.1,2.63,3.05c0.84,0.95,1.73,1.93,2.71,3
					c1,1.08,1.91,2.03,2.81,2.95c0.96,0.98,1.92,1.93,2.87,2.87l0.02,0.02l0.02,0.02c0.95,0.92,1.93,1.86,2.94,2.8
					c0.91,0.85,1.9,1.75,2.99,2.72l0.02,0.02l0.02,0.02c0.83,0.73,1.93,1.69,3.07,2.65c1.09,0.93,2.21,1.84,3.15,2.61
					c1.16,0.93,2.21,1.76,3.25,2.56c1.05,0.8,2.16,1.64,3.32,2.49c1.29,0.94,2.37,1.71,3.39,2.42c1.25,0.87,2.38,1.64,3.42,2.33
					c1.3,0.86,2.45,1.6,3.52,2.27c1.1,0.69,2.25,1.41,3.52,2.17c1.15,0.69,2.37,1.4,3.64,2.13c1.24,0.71,2.48,1.39,3.67,2.03
					c1.08,0.59,2.28,1.22,3.75,1.97c1.14,0.59,2.39,1.21,3.81,1.89c1.21,0.59,2.47,1.18,3.84,1.8c1.24,0.57,2.56,1.15,3.91,1.72
					c1.27,0.55,2.6,1.1,3.97,1.65c1.31,0.53,2.62,1.03,3.99,1.55c1.35,0.51,2.72,1.01,4.08,1.48c1.22,0.43,2.56,0.89,4.08,1.38
					c1.34,0.43,2.69,0.86,4.13,1.3c1.26,0.37,2.71,0.8,4.24,1.22c1.39,0.39,2.81,0.76,4.22,1.12c1.36,0.35,2.78,0.69,4.31,1.03
					c1.46,0.34,2.93,0.66,4.34,0.94c1.36,0.28,2.83,0.57,4.33,0.84c1.44,0.26,2.92,0.51,4.4,0.75c1.21,0.19,2.81,0.44,4.46,0.66
					c1.74,0.23,3.16,0.41,4.47,0.55c1.22,0.14,2.84,0.31,4.51,0.46c1.4,0.13,2.9,0.25,4.53,0.36c1.41,0.1,2.92,0.18,4.57,0.26
					c1.42,0.07,2.93,0.12,4.59,0.16c1.53,0.03,3.09,0.05,4.62,0.05s3.09-0.02,4.62-0.05c1.66-0.04,3.17-0.09,4.63-0.16
					c1.62-0.07,3.13-0.16,4.57-0.26c1.59-0.1,3.09-0.22,4.54-0.36c1.64-0.14,3.25-0.32,4.47-0.45c1.31-0.15,2.73-0.32,4.48-0.56
					c1.64-0.22,3.24-0.47,4.45-0.66c1.49-0.24,2.97-0.49,4.41-0.75c1.5-0.27,2.97-0.56,4.38-0.85c1.31-0.26,2.74-0.57,4.33-0.94
					c1.51-0.34,2.93-0.68,4.3-1.03c1.34-0.34,2.77-0.71,4.19-1.11c1.53-0.41,2.98-0.84,4.2-1.2l0.02-0.01l0.02-0.01
					c1.59-0.49,2.9-0.9,4.12-1.29c1.52-0.49,2.87-0.95,4.12-1.39c1.32-0.46,2.7-0.96,4.05-1.46c1.55-0.59,2.81-1.08,3.99-1.55
					c1.36-0.54,2.7-1.1,3.97-1.65c1.35-0.57,2.67-1.15,3.92-1.73c1.35-0.61,2.61-1.2,3.84-1.8c1.4-0.67,2.65-1.29,3.82-1.9
					c1.44-0.74,2.64-1.36,3.72-1.96c1.19-0.64,2.42-1.32,3.66-2.03c1.13-0.64,2.31-1.33,3.61-2.11c1.3-0.78,2.46-1.5,3.57-2.2
					c1.05-0.66,2.2-1.4,3.5-2.26c1.04-0.69,2.17-1.46,3.44-2.35c1.14-0.79,2.26-1.6,3.34-2.38c1.19-0.87,2.29-1.71,3.32-2.49
					c1.06-0.82,2.12-1.65,3.25-2.56c0.97-0.79,2.09-1.7,3.18-2.63c0.97-0.82,1.98-1.7,3.08-2.67c1.03-0.91,2.05-1.84,3.04-2.76
					c0.99-0.92,1.97-1.86,2.91-2.77l0.02-0.02l0.03-0.03c1.04-1.02,1.97-1.96,2.86-2.87c0.84-0.86,1.77-1.82,2.8-2.93
					c1.01-1.09,1.9-2.07,2.73-3.02c0.84-0.95,1.7-1.94,2.63-3.05c0.94-1.11,1.82-2.19,2.56-3.11l0.02-0.02l0.02-0.03
					c0.73-0.92,1.59-2.01,2.46-3.17c0.66-0.87,1.53-2.03,2.39-3.22c0.76-1.06,1.54-2.17,2.32-3.3c0.81-1.19,1.54-2.28,2.22-3.33
					c0.71-1.1,1.44-2.25,2.15-3.41c0.65-1.06,1.31-2.18,2.03-3.43c0.72-1.24,1.37-2.4,1.98-3.55c0.72-1.32,1.32-2.46,1.86-3.53
					c0.59-1.17,1.19-2.37,1.76-3.57c0.49-1.03,1.1-2.33,1.68-3.67c0.48-1.09,0.99-2.26,1.57-3.66c0.56-1.36,1.08-2.7,1.48-3.71
					c0.53-1.39,1.02-2.75,1.38-3.78c0.4-1.12,0.8-2.33,1.28-3.81c0.45-1.41,0.87-2.79,1.17-3.84c0.35-1.21,0.69-2.47,1.07-3.88
					c0.34-1.31,0.66-2.63,0.97-3.96c0.3-1.28,0.58-2.61,0.85-3.94l0.01-0.03l0.01-0.03c0.21-1.08,0.49-2.5,0.74-3.98
					c0.22-1.24,0.43-2.57,0.64-4c0.17-1.21,0.34-2.49,0.52-4.05c0.15-1.36,0.29-2.73,0.41-4.1c0.13-1.48,0.22-2.83,0.3-4.13
					c0.08-1.35,0.14-2.77,0.18-4.16c0.04-1.27,0.06-2.64,0.06-4.14c0-1.46-0.04-2.98-0.13-4.51c-0.11-1.69-0.24-3.22-0.41-4.74
					c-0.17-1.62-0.4-3.28-0.65-4.9c-0.25-1.6-0.54-3.32-0.88-5.05c-0.23-1.23-0.51-2.58-0.83-3.97c-0.08-0.38-0.16-0.76-0.25-1.15
					L717,459.3c-0.4-1.74-0.83-3.51-1.32-5.4c-0.47-1.79-0.98-3.66-1.53-5.58c-0.11-0.39-0.21-0.75-0.33-1.11
					c-0.52-1.77-0.96-3.26-1.41-4.68c-0.59-1.88-1.23-3.87-1.91-5.9c-0.72-2.14-1.4-4.12-2.09-6.04c-0.69-1.95-1.45-4.04-2.26-6.2
					c-0.7-1.86-1.53-4.05-2.43-6.33c-0.88-2.25-1.8-4.52-2.58-6.44c-0.81-1.96-1.75-4.26-2.74-6.59c-0.87-2.07-1.81-4.25-2.87-6.66
					c-0.99-2.26-2.01-4.54-3.01-6.78c-0.97-2.17-1.95-4.31-3.13-6.86c-1.2-2.59-2.26-4.86-3.25-6.95c-0.96-2.04-2.03-4.27-3.35-7.01
					c-1.15-2.36-2.3-4.72-3.46-7.08c-1.19-2.39-2.36-4.76-3.56-7.13c-1.2-2.38-2.41-4.77-3.63-7.16c-1.24-2.41-2.48-4.82-3.73-7.22
					c-0.95-1.84-1.93-3.7-2.91-5.57l-0.86-1.64l-0.66-1.25c-1.06-2-2.12-4.01-3.2-6.01c-1.29-2.41-2.59-4.83-3.91-7.26
					c-1.3-2.4-2.62-4.81-3.94-7.22l-0.62-1.12c-1.12-2.04-2.25-4.09-3.38-6.12c-1.32-2.39-2.66-4.79-4.01-7.19
					c-1.33-2.39-2.69-4.78-4.05-7.17c-1.34-2.37-2.7-4.75-4.05-7.12c-1.36-2.37-2.71-4.73-4.07-7.07c-1.35-2.34-2.71-4.68-4.06-7
					c-1.36-2.33-2.7-4.64-4.06-6.94c-1.34-2.29-2.69-4.58-4.04-6.85c-1.33-2.26-2.67-4.52-4.02-6.76c-1.32-2.22-2.66-4.45-3.98-6.65
					c-1.32-2.19-2.63-4.37-3.94-6.54c-1.31-2.17-2.61-4.31-3.9-6.43c-1.07-1.77-2.15-3.53-3.21-5.28l-0.61-1.01l-1.82-2.96
					l-1.97-3.2c-0.71-1.17-1.44-2.34-2.16-3.5c-0.51-0.83-1.02-1.65-1.53-2.48l-0.85-1.37c-0.94-1.51-1.87-3.01-2.79-4.49
					c-1.08-1.74-2.16-3.47-3.22-5.17l-0.31-0.49c-1.17-1.87-2.32-3.7-3.45-5.49c-1.13-1.8-2.24-3.57-3.35-5.3l-1.23-1.94
					c-0.67-1.07-1.34-2.12-2-3.16c-1.05-1.65-2.08-3.28-3.1-4.88c-1.02-1.59-2.01-3.15-2.98-4.66l-0.87-1.36
					c-0.68-1.06-1.34-2.09-2-3.11c-0.81-1.27-1.63-2.54-2.43-3.78l-0.25-0.4l-0.87-1.34l-1.69-2.61c-0.45-0.7-0.9-1.38-1.33-2.05
					l-1.06-1.63c-0.43-0.66-0.85-1.3-1.26-1.93l-0.97-1.49l-1.77-2.69l-0.31-0.47c-0.43-0.66-0.87-1.33-1.3-1.98l-0.56-0.86
					l-1.69-2.56l-0.24-0.36l-1.25-1.89c-0.37-0.56-0.71-1.07-1.02-1.55l-0.24-0.36l-0.02-0.03l-0.02-0.03l-0.47-0.7
					c-0.21-0.32-0.41-0.62-0.6-0.89l-0.23-0.34c-0.21-0.31-0.39-0.59-0.56-0.84l-0.02-0.03l-0.02-0.03l-0.23-0.34
					c-0.15-0.23-0.29-0.44-0.41-0.62l-0.16-0.23l-0.09-0.13l-0.12-0.19l-0.03-0.04L539.78,126.34L539.78,126.34z"/>
			</g>
		</g>
	</g>
</g>
<g>
	<g>
		<path class="st7" d="M357.9,742.81c0,35.4-28.5,52.65-64.2,52.65h-44.85v-104.7h44.85C331.05,690.76,357.9,708.01,357.9,742.81z
			 M346.65,742.81c0.3-29.55-23.4-43.05-53.1-43.05h-34.2v86.7h34.2C323.25,786.46,346.35,772.06,346.65,742.81z"/>
		<path class="st7" d="M378.3,690.76v15.3h-12v-15.3H378.3z M366.9,720.46h10.95l-0.6,75H366.9V720.46z"/>
		<path class="st7" d="M469.8,720.46v75h-10.35v-11.25c-6.9,7.95-18.6,12.75-31.8,12.75c-25.65,0-41.7-15.75-41.7-39
			c0-23.1,16.65-39,41.85-39c14.1,0,25.8,4.65,31.95,13.5v-12H469.8z M459.3,757.96c0-18.45-11.1-29.7-30.9-29.7
			c-19.2,0-31.05,11.7-31.35,29.7c-0.3,17.55,11.55,29.55,31.35,29.55c19.05,0,30.9-11.4,30.9-27.75V757.96z"/>
		<path class="st7" d="M562.05,758.86c0,23.55-15.75,38.1-41.7,38.1c-13.35,0-24.9-4.95-31.8-13.35v11.85h-10.2v-104.7h10.35v41.85
			c6.45-8.4,18.3-13.65,31.5-13.65C545.55,718.96,562.05,734.11,562.05,758.86z M551.55,758.86c-0.45-19.5-12.15-30.6-31.35-30.6
			c-19.5,0-30.75,11.25-30.75,32.25c0,16.65,11.7,27.15,30.75,27.15C540.15,787.66,552,776.71,551.55,758.86z"/>
		<path class="st7" d="M566.55,758.26c0-23.55,19.05-39.3,43.5-39.3c25.05,0,43.8,16.05,43.8,39.3c0,23.7-18.9,38.7-43.8,38.7
			C586.2,796.96,566.55,782.26,566.55,758.26z M610.2,787.36c18.3,0,32.85-10.95,32.55-29.1c-0.3-17.7-13.65-30-32.55-29.85
			c-19.35,0.15-32.25,12.3-32.55,29.85C577.35,776.11,591.6,787.36,610.2,787.36z"/>
		<path class="st7" d="M660.75,690.76h10.35v104.7h-10.35V690.76z"/>
		<path class="st7" d="M715.2,796.96c-23.25,0-35.1-12.15-35.1-35.55v-40.95h10.35l0.75,41.1c0.3,17.55,8.25,25.95,24,25.95
			c15.9,0,23.55-8.4,23.85-25.95l0.75-41.1h10.35v40.95C750.15,784.81,738.3,796.96,715.2,796.96z"/>
		<path class="st7" d="M757.8,788.11l4.95-9c8.25,5.85,18.6,8.7,30.9,8.7c15.15,0,24.6-4.65,24.6-12.3c0-8.85-10.8-11.4-24.15-14.1
			c-21.3-4.05-31.65-11.7-31.65-22.65c0-14.85,15.75-20.1,33.6-20.1c12.45,0,24.3,2.55,35.55,7.65l-4.65,8.4
			c-9.3-4.65-19.65-7.05-30.9-7.05c-14.25,0-21.15,3.45-21.15,10.8c0,7.2,6.75,10.8,24.9,14.4c9.6,1.8,16.95,4.35,22.5,7.5
			c5.7,3.75,8.4,8.7,8.4,14.85c0,13.35-13.8,21.45-36.9,21.45C779.1,796.66,767.25,793.96,757.8,788.11z"/>
	</g>
</g>
</svg>
