<?xml version="1.0" encoding="utf-8"?>
<!-- Generator: Adobe Illustrator 23.0.5, SVG Export Plug-In . SVG Version: 6.00 Build 0)  -->
<svg version="1.1" id="Layer_1" xmlns="http://www.w3.org/2000/svg" xmlns:xlink="http://www.w3.org/1999/xlink" x="0px" y="0px"
	 viewBox="0 0 1080 1080" style="enable-background:new 0 0 1080 1080;" xml:space="preserve">
<style type="text/css">
	.st0{fill:#FF4191;}
	.st1{display:none;}
	.st2{display:inline;fill:#E90074;}
	.st3{fill:#E90074;}
</style>
<path class="st0" d="M557.75,277.34c1.9-2.3,4.27-5.26,6.73-8.13c17.02-19.8,37.88-31.93,64.63-31.99
	c38.37-0.1,63.78,31.82,55.3,69.31c-7.14,31.55-39.2,59.31-71.43,61.8c-0.75,0.06-1.54-0.41-3.41-0.94
	c3.07-2.08,5.43-3.64,7.75-5.26c19.51-13.6,32.75-31.41,37.02-55.22c0.47-2.61,0.84-5.27,0.93-7.92
	c0.91-24.87-17.44-38.53-41.09-30.55c-15.33,5.17-27.02,15.44-34.54,29.16c-8.63,15.72-15.21,32.57-22.62,48.95
	c-1.15,2.53-2,5.2-2.31,6.02c-9.7-22.9-18.87-46.78-29.88-69.79c-7.7-16.11-19.57-29.59-34.45-39.97
	c-11.29-7.88-23.79-11.85-37.63-10.87c-25.99,1.85-40.17,22.47-32.67,47.42c5.18,17.21,15.35,31.28,28.2,43.45
	c34.43,32.6,76.3,49.99,122.12,59.07c41.47,8.22,83.52,8.44,125.56,9.38c12.27,0.28,25.05,1.56,36.62,5.37
	c31.89,10.51,49.1,34.41,53,66.95c2.06,17.18,0.36,34.81,0.36,53.03c-8.86,0-17.79,0-27.63,0c-0.2-4.16-0.51-8.19-0.55-12.22
	c-0.09-8.29,0-16.58-0.06-24.87c-0.28-38.43-20.92-58.73-59.53-59.64c-30.76-0.72-61.6-1.18-92.23-3.8
	c-59.08-5.06-114.53-21.4-162.05-58.67c-25.42-19.94-45.9-43.6-53.24-76.3c-8.65-38.53,17.08-73.99,56.48-77.85
	c30.96-3.03,56.58,8.35,77.05,30.63C536.28,247.06,546.2,262.23,557.75,277.34z"/>
<path class="st0" d="M757.66,733.59c10.33,0,19.06,0,29.04,0c-1.19,28.56,4.34,57.07-10.47,83.58
	c-14.4,25.77-36.92,38.16-65.35,41.44c-4.4,0.51-8.87,0.47-13.3,0.47c-106.26,0.02-212.52-0.02-318.78,0.04
	c-24.97,0.01-47.34-6.57-65.32-24.77c-13-13.16-20.34-29.44-21.89-47.44c-1.48-17.3-0.32-34.82-0.32-53.07c8.84,0,17.77,0,28.2,0
	c0,6.87-0.24,13.56,0.05,20.22c0.52,11.79-0.04,23.86,2.39,35.28c5.01,23.59,20.99,37.05,44.99,39.97
	c5.86,0.71,11.81,0.87,17.72,0.87c103,0.06,206.01,0.05,309.01,0.05c2.96,0,5.92-0.06,8.87-0.21c34.97-1.83,54.12-21.3,55.1-56.4
	C757.96,760.66,757.66,747.66,757.66,733.59z"/>
<path class="st1" d="M231.58,597.57c-31.57,29.99-86.01,29.96-114.44,0.07c-26.67-28.04-25-76.55,3.57-103.46
	c27.9-26.27,80.8-26.62,106.02,0.22c-5.98,7.26-12.07,14.66-18.81,22.84c-13.84-11.51-29.42-17.74-46.31-12.51
	c-8.4,2.6-16.81,9.08-22.41,16.06c-13.5,16.83-10.55,44.65,4.69,59.38c14.57,14.09,40.39,15.47,57.68,2.74c0-5.99,0-12.29,0-19.53
	c-10,0-19.34,0-29.5,0c0-9.23,0-17.53,0-26.48c19.87,0,39.23,0,59.51,0C231.58,557.04,231.58,576.97,231.58,597.57z"/>
<path class="st1" d="M415.06,563.08c-22.27,0-43.72,0-66.36,0c0,18.4,0,35.69,0,53.73c-10.72,0-20.22,0-30.44,0
	c0-46.42,0-92.43,0-139.22c35.09,0,70.32,0,106.05,0c0,8.9,0,17.34,0,27.17c-24.95,0-49.59,0-74.99,0c0,10.35,0,19.33,0,29.78
	c21.79,0,43.45,0,65.74,0C415.06,544.41,415.06,552.83,415.06,563.08z"/>
<path class="st1" d="M599.28,477.38c23.8,0,46.92-1.5,69.76,0.39c27.32,2.27,41.91,23.91,32.78,46.84
	c-3.07,7.72-10.16,13.84-15.71,21.08c-0.04-0.02,0.86,0.51,1.81,0.94c18.04,8.19,26.04,20.05,24.25,35.99
	c-1.84,16.43-13.4,29.27-31.73,32.44c-12.41,2.15-25.25,2.1-37.92,2.44c-14.12,0.38-28.26,0.09-43.25,0.09
	C599.28,570.52,599.28,524.35,599.28,477.38z M614.89,554.39c0,16.27,0,32.02,0,47.75c19.53,0,38.42,0.93,57.17-0.3
	c14.43-0.95,23.62-11.12,24.04-22.95c0.43-12.08-7.85-20.77-22.87-23.94c-1.15-0.24-2.33-0.53-3.5-0.53
	C651.76,554.38,633.8,554.39,614.89,554.39z M614.9,538.55c17.12,0,33.57,0.14,50.03-0.13c3.11-0.05,6.35-1.4,9.27-2.72
	c9.74-4.4,14.78-13.22,13.79-23.53c-0.92-9.59-7.5-18.02-18.03-19.07c-18.06-1.8-36.29-1.9-55.06-2.74
	C614.9,507.59,614.9,523.02,614.9,538.55z"/>
<path class="st0" d="M463.26,391.22c0,8.63,0,18.9,0,28.55c-3.63,0.14-6.76,0.21-9.9,0.21c-25.45,0.06-50.9-0.31-76.34,0.18
	c-31.6,0.61-50.74,15.7-56.09,43.74c-1.21,6.34-1.26,12.94-1.39,19.43c-0.21,10.89-0.06,21.79-0.06,33.38c-9.89,0-18.84,0-28.87,0
	c0.7-25.31-3.54-50.59,6.26-74.72c11.57-28.48,33.2-46.42,63.33-49.01C393.4,390.12,453.74,390.89,463.26,391.22z"/>
<path class="st1" d="M567.57,477.49c0,9.55,0,18.02,0,27.62c-13.91,0-27.34,0-42.36,0c0,19.62,0,38.12,0,56.62
	c0,18.21,0,36.43,0,55.24c-10.83,0-20.14,0-30.56,0c0-36.65,0-73.15,0-111.14c-14.68,0-28.33,0-42.62,0c0-10.18,0-18.87,0-28.34
	C490.37,477.49,528.59,477.49,567.57,477.49z"/>
<path class="st1" d="M733.53,546.97c0.15-41.49,31.47-72.92,72.38-72.65c40.6,0.27,71.52,31.74,71,72.99
	c-0.5,39.47-29.14,72.41-71.62,72.72C764.26,620.33,733.37,588.7,733.53,546.97z M860.21,548.18c0.47-32.95-23.09-58.41-54.58-58.95
	c-30.66-0.53-54.96,23.93-55.59,55.95c-0.65,33.06,22.83,59.18,53.76,59.81C835.68,605.64,859.73,581.42,860.21,548.18z"/>
<path class="st1" d="M993.49,616.7c-14.39-19.2-29.04-38.75-44.57-59.46c-15.49,20.76-30.07,40.3-44.87,60.13
	c-5.52-0.43-10.65-0.83-17.24-1.34c17.81-23.66,34.97-46.45,52.75-70.06c-16.84-22.5-33.57-44.86-51.17-68.39
	c6.74,0,12.12,0,18.64,0c13.48,17.79,27.54,36.34,42.65,56.28c14.43-19.29,28.28-37.8,42.31-56.56c5.59,0,11.06,0,18.69,0
	c-17.74,23.44-34.51,45.59-51.65,68.24c17.77,23.67,35.09,46.75,53.43,71.17C1005.59,616.7,1000.29,616.7,993.49,616.7z"/>
<path class="st1" d="M260.27,477.33c10.11,0,19.45,0,29.48,0c0,46.47,0,92.44,0,139.34c-9.59,0-19.12,0-29.48,0
	C260.27,570.56,260.27,524.37,260.27,477.33z"/>
<g>
	<g class="st1">
		<path class="st2" d="M116.21,554.82h89.85v15.89h-71.6v45.38h67.12v15.89h-67.12v62.7h-18.26V554.82z"/>
		<path class="st2" d="M241.63,652.72l-15.04,41.95h-18.46l49.81-139.85h22.83l51.95,139.85h-19.76l-15.52-41.95H241.63z
			 M292.69,636.83c-13.33-36.75-20.66-56.29-23.69-66.94h-0.2c-3.42,11.86-11.61,35.51-22.35,66.94H292.69z"/>
		<path class="st2" d="M356.92,655.74c3.79,16.77,15.26,25.83,35.53,25.83c21.81,0,30.45-10.23,30.45-23.44
			c0-14.03-6.89-21.88-34.93-28.67c-32.95-8.01-44.39-19.29-44.39-38.95c0-20.77,15.32-37.7,46.54-37.7
			c33.3,0,47.01,19.25,48.89,37.62h-18.87c-2.5-12.44-10.29-22.66-30.69-22.66c-17.03,0-26.59,7.67-26.59,21
			c0,13.13,7.89,18.3,32.4,24.24c39.88,9.71,46.92,25.23,46.92,43.18c0,22.55-16.71,40.23-50.91,40.23
			c-35.18,0-50.32-19.22-53.22-40.68H356.92z"/>
		<path class="st2" d="M491.24,570.71h-45.17v-15.89h109.07v15.89h-45.23v123.96h-18.67V570.71z"/>
		<path class="st2" d="M697.37,694.67h-21.96c-1.16-4.26-1.91-9.02-2.29-13.67c-7.68,10.36-21.21,15.98-40.47,15.98
			c-40.22,0-62.7-30.4-62.7-69.87c0-41.66,24.23-73.04,67.92-73.04c35.66,0,56.65,20.13,60.01,43.76h-29.96
			c-2.84-9.28-10.17-20.26-30.44-20.26c-28.45,0-36.57,23.8-36.57,48.23c0,23.84,9.28,47.33,36.75,47.33
			c25.62,0,30.34-17.78,30.34-30.18v-1.25H637.6v-24.56h59.77V694.67z"/>
		<path class="st2" d="M750.68,556.09v138.58h-29.96V556.09H750.68z"/>
		<path class="st2" d="M776.59,556.09h96.73v24.56h-67.47v33.96h63.2v24.56h-63.2v55.5h-29.26V556.09z"/>
		<path class="st2" d="M915.42,580.65h-42.1v-24.56h114.04v24.56h-41.95v114.02h-29.99V580.65z"/>
	</g>
</g>
<g>
	<path class="st3" d="M116.01,554.82h89.85v15.89h-71.6v45.38h67.12v15.89h-67.12v62.7h-18.26V554.82z"/>
	<path class="st3" d="M233.2,652.72l-15.04,41.95H199.7l49.81-139.85h22.83l51.95,139.85h-19.76L289,652.72H233.2z M284.25,636.83
		c-13.33-36.75-20.66-56.29-23.69-66.94h-0.2c-3.42,11.86-11.61,35.51-22.35,66.94H284.25z"/>
	<path class="st3" d="M349.69,655.74c3.79,16.77,15.26,25.83,35.53,25.83c21.81,0,30.45-10.23,30.45-23.44
		c0-14.03-6.89-21.88-34.93-28.67c-32.95-8.01-44.39-19.29-44.39-38.95c0-20.77,15.32-37.7,46.54-37.7
		c33.3,0,47.01,19.25,48.89,37.62H412.9c-2.5-12.44-10.29-22.66-30.69-22.66c-17.03,0-26.59,7.67-26.59,21
		c0,13.13,7.89,18.3,32.4,24.24c39.88,9.71,46.92,25.23,46.92,43.18c0,22.55-16.71,40.23-50.91,40.23
		c-35.18,0-50.32-19.22-53.22-40.68H349.69z"/>
	<path class="st3" d="M482.8,570.71h-45.17v-15.89H546.7v15.89h-45.23v123.96H482.8V570.71z"/>
	<path class="st3" d="M688.93,694.67h-21.96c-1.16-4.26-1.91-9.02-2.29-13.67c-7.68,10.36-21.21,15.98-40.47,15.98
		c-40.22,0-62.7-30.4-62.7-69.87c0-41.66,24.23-73.04,67.92-73.04c35.66,0,56.65,20.13,60.01,43.76h-29.96
		c-2.84-9.28-10.17-20.26-30.44-20.26c-28.45,0-36.57,23.8-36.57,48.23c0,23.84,9.28,47.33,36.75,47.33
		c25.62,0,30.34-17.78,30.34-30.18v-1.25h-30.39v-24.56h59.77V694.67z"/>
	<path class="st3" d="M742.44,556.09v138.58h-29.96V556.09H742.44z"/>
	<path class="st3" d="M768.55,556.09h96.73v24.56h-67.47v33.96h63.2v24.56h-63.2v55.5h-29.26V556.09z"/>
	<path class="st3" d="M915.42,580.65h-42.1v-24.56h114.04v24.56h-41.95v114.02h-29.99V580.65z"/>
</g>
</svg>
